<svg width="932" height="80" viewBox="0 0 932 80" fill="none" xmlns="http://www.w3.org/2000/svg">
<path d="M78.3405 36.432C75.7965 36.432 73.6125 35.892 71.7885 34.812C69.9645 33.708 68.5605 32.184 67.5765 30.24C66.5925 28.272 66.1005 26.004 66.1005 23.436C66.1005 20.868 66.5925 18.6 67.5765 16.632C68.5605 14.664 69.9645 13.128 71.7885 12.024C73.6125 10.92 75.7965 10.368 78.3405 10.368C81.3645 10.368 83.8365 11.124 85.7565 12.636C87.7005 14.124 88.9125 16.224 89.3925 18.936H84.3165C84.0045 17.568 83.3325 16.5 82.3005 15.732C81.2925 14.94 79.9485 14.544 78.2685 14.544C75.9405 14.544 74.1165 15.336 72.7965 16.92C71.4765 18.504 70.8165 20.676 70.8165 23.436C70.8165 26.196 71.4765 28.368 72.7965 29.952C74.1165 31.512 75.9405 32.292 78.2685 32.292C79.9485 32.292 81.2925 31.932 82.3005 31.212C83.3325 30.468 84.0045 29.448 84.3165 28.152H89.3925C88.9125 30.744 87.7005 32.772 85.7565 34.236C83.8365 35.7 81.3645 36.432 78.3405 36.432ZM93.4714 36V10.8H98.0794V21.276H109.383V10.8H113.991V36H109.383V25.02H98.0794V36H93.4714ZM118.889 36V10.8H135.341V14.508H123.497V21.42H134.261V25.02H123.497V32.292H135.341V36H118.889ZM139.702 36V10.8H145.174L153.202 26.784L161.122 10.8H166.594V36H161.986V18.612L154.966 32.4H151.33L144.31 18.612V36H139.702ZM171.483 36V10.8H176.091V36H171.483ZM192.387 36.432C189.843 36.432 187.659 35.892 185.835 34.812C184.011 33.708 182.607 32.184 181.623 30.24C180.639 28.272 180.147 26.004 180.147 23.436C180.147 20.868 180.639 18.6 181.623 16.632C182.607 14.664 184.011 13.128 185.835 12.024C187.659 10.92 189.843 10.368 192.387 10.368C195.411 10.368 197.883 11.124 199.803 12.636C201.747 14.124 202.959 16.224 203.439 18.936H198.363C198.051 17.568 197.379 16.5 196.347 15.732C195.339 14.94 193.995 14.544 192.315 14.544C189.987 14.544 188.163 15.336 186.843 16.92C185.523 18.504 184.863 20.676 184.863 23.436C184.863 26.196 185.523 28.368 186.843 29.952C188.163 31.512 189.987 32.292 192.315 32.292C193.995 32.292 195.339 31.932 196.347 31.212C197.379 30.468 198.051 29.448 198.363 28.152H203.439C202.959 30.744 201.747 32.772 199.803 34.236C197.883 35.7 195.411 36.432 192.387 36.432ZM205.582 36L214.798 10.8H219.982L229.198 36H224.302L222.286 30.168H212.458L210.406 36H205.582ZM213.718 26.568H221.026L217.354 16.092L213.718 26.568ZM232.444 36V10.8H237.052V32.4H248.212V36H232.444ZM260.85 36V10.8H265.458V36H260.85ZM270.343 36V10.8H274.951L286.795 28.548V10.8H291.403V36H286.795L274.951 18.288V36H270.343ZM303.596 36L294.38 10.8H299.312L306.44 31.284L313.604 10.8H318.464L309.248 36H303.596ZM321.46 36V10.8H337.912V14.508H326.068V21.42H336.832V25.02H326.068V32.292H337.912V36H321.46ZM342.272 36V10.8H346.88L358.724 28.548V10.8H363.332V36H358.724L346.88 18.288V36H342.272ZM374.086 36V14.508H366.742V10.8H386.074V14.508H378.694V36H374.086ZM400.381 36.432C397.861 36.432 395.653 35.88 393.757 34.776C391.885 33.672 390.409 32.148 389.329 30.204C388.273 28.236 387.745 25.968 387.745 23.4C387.745 20.832 388.273 18.576 389.329 16.632C390.409 14.664 391.885 13.128 393.757 12.024C395.653 10.92 397.861 10.368 400.381 10.368C402.877 10.368 405.073 10.92 406.969 12.024C408.865 13.128 410.341 14.664 411.397 16.632C412.453 18.576 412.981 20.832 412.981 23.4C412.981 25.968 412.453 28.236 411.397 30.204C410.341 32.148 408.865 33.672 406.969 34.776C405.073 35.88 402.877 36.432 400.381 36.432ZM400.381 32.292C402.781 32.292 404.689 31.5 406.105 29.916C407.545 28.332 408.265 26.16 408.265 23.4C408.265 20.64 407.545 18.468 406.105 16.884C404.689 15.3 402.781 14.508 400.381 14.508C397.981 14.508 396.061 15.3 394.621 16.884C393.181 18.468 392.461 20.64 392.461 23.4C392.461 26.16 393.181 28.332 394.621 29.916C396.061 31.5 397.981 32.292 400.381 32.292ZM417.05 36V10.8H426.302C428.318 10.8 429.974 11.148 431.27 11.844C432.59 12.516 433.574 13.44 434.222 14.616C434.87 15.768 435.194 17.052 435.194 18.468C435.194 20.004 434.786 21.408 433.97 22.68C433.178 23.952 431.93 24.876 430.226 25.452L435.446 36H430.154L425.474 26.064H421.658V36H417.05ZM421.658 22.68H426.014C427.55 22.68 428.678 22.308 429.398 21.564C430.118 20.82 430.478 19.836 430.478 18.612C430.478 17.412 430.118 16.452 429.398 15.732C428.702 15.012 427.562 14.652 425.978 14.652H421.658V22.68ZM445.116 36V27.036L436.656 10.8H441.876L447.456 22.428L453 10.8H458.148L449.724 27.036V36H445.116ZM469.678 36V10.8H475.15L483.178 26.784L491.098 10.8H496.57V36H491.962V18.612L484.942 32.4H481.306L474.286 18.612V36H469.678ZM499.84 36L509.056 10.8H514.24L523.456 36H518.56L516.544 30.168H506.716L504.664 36H499.84ZM507.976 26.568H515.284L511.612 16.092L507.976 26.568ZM526.702 36V10.8H531.31L543.154 28.548V10.8H547.762V36H543.154L531.31 18.288V36H526.702ZM551.027 36L560.243 10.8H565.427L574.643 36H569.747L567.731 30.168H557.903L555.851 36H551.027ZM559.163 26.568H566.471L562.799 16.092L559.163 26.568ZM587.464 36.432C585.088 36.432 583.012 35.892 581.236 34.812C579.46 33.732 578.08 32.232 577.096 30.312C576.112 28.368 575.62 26.112 575.62 23.544C575.62 20.952 576.124 18.672 577.132 16.704C578.164 14.712 579.616 13.164 581.488 12.06C583.384 10.932 585.628 10.368 588.22 10.368C591.172 10.368 593.62 11.076 595.564 12.492C597.508 13.908 598.768 15.864 599.344 18.36H594.196C593.812 17.184 593.116 16.272 592.108 15.624C591.1 14.952 589.804 14.616 588.22 14.616C585.7 14.616 583.756 15.42 582.388 17.028C581.02 18.612 580.336 20.796 580.336 23.58C580.336 26.364 581.008 28.524 582.352 30.06C583.72 31.572 585.568 32.328 587.896 32.328C590.176 32.328 591.892 31.716 593.044 30.492C594.22 29.244 594.928 27.612 595.168 25.596H588.796V22.14H599.812V36H595.564L595.204 32.688C594.388 33.888 593.368 34.812 592.144 35.46C590.92 36.108 589.36 36.432 587.464 36.432ZM604.292 36V10.8H620.744V14.508H608.9V21.42H619.664V25.02H608.9V32.292H620.744V36H604.292ZM625.104 36V10.8H630.576L638.604 26.784L646.524 10.8H651.996V36H647.388V18.612L640.368 32.4H636.732L629.712 18.612V36H625.104ZM656.886 36V10.8H673.338V14.508H661.494V21.42H672.258V25.02H661.494V32.292H673.338V36H656.886ZM677.698 36V10.8H682.306L694.15 28.548V10.8H698.758V36H694.15L682.306 18.288V36H677.698ZM709.511 36V14.508H702.167V10.8H721.499V14.508H714.119V36H709.511ZM742.095 36.432C740.247 36.432 738.615 36.12 737.199 35.496C735.783 34.848 734.667 33.936 733.851 32.76C733.035 31.56 732.615 30.108 732.591 28.404H737.451C737.499 29.58 737.919 30.576 738.711 31.392C739.527 32.184 740.643 32.58 742.059 32.58C743.283 32.58 744.255 32.292 744.975 31.716C745.695 31.116 746.055 30.324 746.055 29.34C746.055 28.308 745.731 27.504 745.083 26.928C744.459 26.352 743.619 25.884 742.563 25.524C741.507 25.164 740.379 24.78 739.179 24.372C737.235 23.7 735.747 22.836 734.715 21.78C733.707 20.724 733.203 19.32 733.203 17.568C733.179 16.08 733.527 14.808 734.247 13.752C734.991 12.672 735.999 11.844 737.271 11.268C738.543 10.668 740.007 10.368 741.663 10.368C743.343 10.368 744.819 10.668 746.091 11.268C747.387 11.868 748.395 12.708 749.115 13.788C749.859 14.868 750.255 16.152 750.303 17.64H745.371C745.347 16.752 744.999 15.972 744.327 15.3C743.679 14.604 742.767 14.256 741.591 14.256C740.583 14.232 739.731 14.484 739.035 15.012C738.363 15.516 738.027 16.26 738.027 17.244C738.027 18.084 738.291 18.756 738.819 19.26C739.347 19.74 740.067 20.148 740.979 20.484C741.891 20.82 742.935 21.18 744.111 21.564C745.359 21.996 746.499 22.5 747.531 23.076C748.563 23.652 749.391 24.42 750.015 25.38C750.639 26.316 750.951 27.528 750.951 29.016C750.951 30.336 750.615 31.56 749.943 32.688C749.271 33.816 748.275 34.728 746.955 35.424C745.635 36.096 744.015 36.432 742.095 36.432ZM760.398 36V27.036L751.938 10.8H757.158L762.738 22.428L768.282 10.8H773.43L765.006 27.036V36H760.398ZM783.544 36.432C781.696 36.432 780.064 36.12 778.648 35.496C777.232 34.848 776.116 33.936 775.3 32.76C774.484 31.56 774.064 30.108 774.04 28.404H778.9C778.948 29.58 779.368 30.576 780.16 31.392C780.976 32.184 782.092 32.58 783.508 32.58C784.732 32.58 785.704 32.292 786.424 31.716C787.144 31.116 787.504 30.324 787.504 29.34C787.504 28.308 787.18 27.504 786.532 26.928C785.908 26.352 785.068 25.884 784.012 25.524C782.956 25.164 781.828 24.78 780.628 24.372C778.684 23.7 777.196 22.836 776.164 21.78C775.156 20.724 774.652 19.32 774.652 17.568C774.628 16.08 774.976 14.808 775.696 13.752C776.44 12.672 777.448 11.844 778.72 11.268C779.992 10.668 781.456 10.368 783.112 10.368C784.792 10.368 786.268 10.668 787.54 11.268C788.836 11.868 789.844 12.708 790.564 13.788C791.308 14.868 791.704 16.152 791.752 17.64H786.82C786.796 16.752 786.448 15.972 785.776 15.3C785.128 14.604 784.216 14.256 783.04 14.256C782.032 14.232 781.18 14.484 780.484 15.012C779.812 15.516 779.476 16.26 779.476 17.244C779.476 18.084 779.74 18.756 780.268 19.26C780.796 19.74 781.516 20.148 782.428 20.484C783.34 20.82 784.384 21.18 785.56 21.564C786.808 21.996 787.948 22.5 788.98 23.076C790.012 23.652 790.84 24.42 791.464 25.38C792.088 26.316 792.4 27.528 792.4 29.016C792.4 30.336 792.064 31.56 791.392 32.688C790.72 33.816 789.724 34.728 788.404 35.424C787.084 36.096 785.464 36.432 783.544 36.432ZM801.972 36V14.508H794.628V10.8H813.96V14.508H806.58V36H801.972ZM817.374 36V10.8H833.826V14.508H821.982V21.42H832.746V25.02H821.982V32.292H833.826V36H817.374ZM838.186 36V10.8H843.658L851.686 26.784L859.606 10.8H865.078V36H860.47V18.612L853.45 32.4H849.814L842.794 18.612V36H838.186Z" fill="black"/>
<path d="M101.501 75V62.4H105.371C107.591 62.4 109.223 62.964 110.267 64.092C111.323 65.22 111.851 66.768 111.851 68.736C111.851 70.668 111.323 72.198 110.267 73.326C109.223 74.442 107.591 75 105.371 75H101.501ZM103.013 73.74H105.335C106.559 73.74 107.531 73.542 108.251 73.146C108.983 72.738 109.505 72.162 109.817 71.418C110.129 70.662 110.285 69.768 110.285 68.736C110.285 67.68 110.129 66.774 109.817 66.018C109.505 65.262 108.983 64.68 108.251 64.272C107.531 63.864 106.559 63.66 105.335 63.66H103.013V73.74ZM117.994 75V62.4H125.788V63.642H119.506V68.034H125.248V69.258H119.506V73.758H125.788V75H117.994ZM132.114 75V62.4H136.254C137.238 62.4 138.048 62.562 138.684 62.886C139.32 63.21 139.788 63.648 140.088 64.2C140.4 64.752 140.556 65.376 140.556 66.072C140.556 66.756 140.406 67.374 140.106 67.926C139.806 68.478 139.338 68.922 138.702 69.258C138.066 69.582 137.25 69.744 136.254 69.744H133.626V75H132.114ZM133.626 68.466H136.218C137.226 68.466 137.94 68.256 138.36 67.836C138.792 67.404 139.008 66.816 139.008 66.072C139.008 65.316 138.792 64.728 138.36 64.308C137.94 63.876 137.226 63.66 136.218 63.66H133.626V68.466ZM144.124 75L148.768 62.4H150.37L154.996 75H153.394L152.242 71.76H146.878L145.708 75H144.124ZM147.328 70.536H151.792L149.56 64.308L147.328 70.536ZM160.829 75V62.4H164.897C165.881 62.4 166.685 62.562 167.309 62.886C167.933 63.21 168.395 63.654 168.695 64.218C168.995 64.782 169.145 65.406 169.145 66.09C169.145 66.882 168.929 67.596 168.497 68.232C168.077 68.868 167.417 69.318 166.517 69.582L169.271 75H167.489L164.933 69.798H164.825H162.341V75H160.829ZM162.341 68.61H164.789C165.761 68.61 166.469 68.376 166.913 67.908C167.357 67.44 167.579 66.84 167.579 66.108C167.579 65.364 167.357 64.776 166.913 64.344C166.481 63.9 165.767 63.678 164.771 63.678H162.341V68.61ZM178.411 75V63.642H174.649V62.4H183.685V63.642H179.923V75H178.411ZM189.491 75V62.4H191.255L195.791 71.184L200.291 62.4H202.073V75H200.561V65.1L196.349 73.2H195.215L191.003 65.118V75H189.491ZM208.692 75V62.4H216.486V63.642H210.204V68.034H215.946V69.258H210.204V73.758H216.486V75H208.692ZM222.812 75V62.4H224.324L231.038 72.498V62.4H232.55V75H231.038L224.324 64.902V75H222.812ZM242.134 75V63.642H238.372V62.4H247.408V63.642H243.646V75H242.134ZM267.662 75.216C266.426 75.216 265.34 74.946 264.404 74.406C263.48 73.854 262.754 73.086 262.226 72.102C261.71 71.118 261.452 69.984 261.452 68.7C261.452 67.416 261.71 66.288 262.226 65.316C262.754 64.332 263.48 63.564 264.404 63.012C265.34 62.46 266.426 62.184 267.662 62.184C268.91 62.184 269.996 62.46 270.92 63.012C271.856 63.564 272.582 64.332 273.098 65.316C273.614 66.288 273.872 67.416 273.872 68.7C273.872 69.984 273.614 71.118 273.098 72.102C272.582 73.086 271.856 73.854 270.92 74.406C269.996 74.946 268.91 75.216 267.662 75.216ZM267.662 73.884C268.586 73.884 269.396 73.68 270.092 73.272C270.8 72.852 271.346 72.258 271.73 71.49C272.126 70.71 272.324 69.78 272.324 68.7C272.324 67.62 272.126 66.696 271.73 65.928C271.346 65.16 270.8 64.572 270.092 64.164C269.396 63.744 268.586 63.534 267.662 63.534C266.738 63.534 265.922 63.744 265.214 64.164C264.518 64.572 263.972 65.16 263.576 65.928C263.192 66.696 263 67.62 263 68.7C263 69.78 263.192 70.71 263.576 71.49C263.972 72.258 264.518 72.852 265.214 73.272C265.922 73.68 266.738 73.884 267.662 73.884ZM280.013 75V62.4H287.681V63.642H281.525V68.07H286.763V69.294H281.525V75H280.013ZM307.838 75.216C306.602 75.216 305.534 74.946 304.634 74.406C303.746 73.854 303.056 73.092 302.564 72.12C302.072 71.136 301.826 69.996 301.826 68.7C301.826 67.416 302.072 66.288 302.564 65.316C303.056 64.332 303.746 63.564 304.634 63.012C305.534 62.46 306.602 62.184 307.838 62.184C309.278 62.184 310.448 62.532 311.348 63.228C312.26 63.912 312.842 64.872 313.094 66.108H311.42C311.228 65.328 310.832 64.704 310.232 64.236C309.644 63.756 308.846 63.516 307.838 63.516C306.938 63.516 306.152 63.726 305.48 64.146C304.808 64.554 304.286 65.148 303.914 65.928C303.554 66.696 303.374 67.62 303.374 68.7C303.374 69.78 303.554 70.71 303.914 71.49C304.286 72.258 304.808 72.852 305.48 73.272C306.152 73.68 306.938 73.884 307.838 73.884C308.846 73.884 309.644 73.656 310.232 73.2C310.832 72.732 311.228 72.114 311.42 71.346H313.094C312.842 72.558 312.26 73.506 311.348 74.19C310.448 74.874 309.278 75.216 307.838 75.216ZM319.227 75V62.4H320.739V67.962H327.273V62.4H328.785V75H327.273V69.204H320.739V75H319.227ZM335.404 75V62.4H343.198V63.642H336.916V68.034H342.658V69.258H336.916V73.758H343.198V75H335.404ZM349.524 75V62.4H351.288L355.824 71.184L360.324 62.4H362.106V75H360.594V65.1L356.382 73.2H355.248L351.036 65.118V75H349.524ZM368.724 75V62.4H370.236V75H368.724ZM380.882 75.216C379.958 75.216 379.154 75.048 378.47 74.712C377.786 74.376 377.258 73.908 376.886 73.308C376.514 72.708 376.328 72.012 376.328 71.22H377.912C377.912 71.712 378.026 72.168 378.254 72.588C378.482 72.996 378.812 73.326 379.244 73.578C379.688 73.818 380.234 73.938 380.882 73.938C381.734 73.938 382.394 73.734 382.862 73.326C383.33 72.918 383.564 72.408 383.564 71.796C383.564 71.292 383.456 70.89 383.24 70.59C383.024 70.278 382.73 70.026 382.358 69.834C381.998 69.642 381.578 69.474 381.098 69.33C380.63 69.186 380.138 69.024 379.622 68.844C378.65 68.508 377.93 68.094 377.462 67.602C376.994 67.098 376.76 66.444 376.76 65.64C376.748 64.968 376.904 64.374 377.228 63.858C377.552 63.33 378.008 62.922 378.596 62.634C379.196 62.334 379.904 62.184 380.72 62.184C381.524 62.184 382.22 62.334 382.808 62.634C383.408 62.934 383.87 63.348 384.194 63.876C384.53 64.404 384.704 65.004 384.716 65.676H383.132C383.132 65.328 383.042 64.986 382.862 64.65C382.682 64.302 382.406 64.02 382.034 63.804C381.674 63.588 381.218 63.48 380.666 63.48C379.982 63.468 379.418 63.642 378.974 64.002C378.542 64.362 378.326 64.86 378.326 65.496C378.326 66.036 378.476 66.45 378.776 66.738C379.088 67.026 379.52 67.266 380.072 67.458C380.624 67.638 381.26 67.848 381.98 68.088C382.58 68.304 383.12 68.556 383.6 68.844C384.08 69.132 384.452 69.504 384.716 69.96C384.992 70.416 385.13 70.998 385.13 71.706C385.13 72.306 384.974 72.876 384.662 73.416C384.35 73.944 383.876 74.376 383.24 74.712C382.616 75.048 381.83 75.216 380.882 75.216ZM393.887 75V63.642H390.125V62.4H399.161V63.642H395.399V75H393.887ZM404.968 75V62.4H409.036C410.02 62.4 410.824 62.562 411.448 62.886C412.072 63.21 412.534 63.654 412.834 64.218C413.134 64.782 413.284 65.406 413.284 66.09C413.284 66.882 413.068 67.596 412.636 68.232C412.216 68.868 411.556 69.318 410.656 69.582L413.41 75H411.628L409.072 69.798H408.964H406.48V75H404.968ZM406.48 68.61H408.928C409.9 68.61 410.608 68.376 411.052 67.908C411.496 67.44 411.718 66.84 411.718 66.108C411.718 65.364 411.496 64.776 411.052 64.344C410.62 63.9 409.906 63.678 408.91 63.678H406.48V68.61ZM422.202 75V70.212L418.098 62.4H419.808L422.958 68.772L426.108 62.4H427.8L423.714 70.212V75H422.202ZM450.901 76.8V62.04H452.413V76.8H450.901ZM472.046 75.216C471.122 75.216 470.288 75.036 469.544 74.676C468.8 74.304 468.206 73.746 467.762 73.002C467.33 72.258 467.114 71.316 467.114 70.176V62.4H469.418V70.194C469.418 71.178 469.652 71.91 470.12 72.39C470.6 72.87 471.26 73.11 472.1 73.11C472.928 73.11 473.582 72.87 474.062 72.39C474.542 71.91 474.782 71.178 474.782 70.194V62.4H477.086V70.176C477.086 71.316 476.858 72.258 476.402 73.002C475.946 73.746 475.334 74.304 474.566 74.676C473.81 75.036 472.97 75.216 472.046 75.216ZM483.398 75V62.4H485.702L491.624 71.274V62.4H493.928V75H491.624L485.702 66.144V75H483.398ZM500.331 75V62.4H502.635V75H500.331ZM512.691 75L508.083 62.4H510.549L514.113 72.642L517.695 62.4H520.125L515.517 75H512.691ZM525.583 75V62.4H533.809V64.254H527.887V67.71H533.269V69.51H527.887V73.146H533.809V75H525.583ZM539.949 75V62.4H544.575C545.583 62.4 546.411 62.574 547.059 62.922C547.719 63.258 548.211 63.72 548.535 64.308C548.859 64.884 549.021 65.526 549.021 66.234C549.021 67.002 548.817 67.704 548.409 68.34C548.013 68.976 547.389 69.438 546.537 69.726L549.147 75H546.501L544.161 70.032H542.253V75H539.949ZM542.253 68.34H544.431C545.199 68.34 545.763 68.154 546.123 67.782C546.483 67.41 546.663 66.918 546.663 66.306C546.663 65.706 546.483 65.226 546.123 64.866C545.775 64.506 545.205 64.326 544.413 64.326H542.253V68.34ZM559.426 75.216C558.502 75.216 557.686 75.06 556.978 74.748C556.27 74.424 555.712 73.968 555.304 73.38C554.896 72.78 554.686 72.054 554.674 71.202H557.104C557.128 71.79 557.338 72.288 557.734 72.696C558.142 73.092 558.7 73.29 559.408 73.29C560.02 73.29 560.506 73.146 560.866 72.858C561.226 72.558 561.406 72.162 561.406 71.67C561.406 71.154 561.244 70.752 560.92 70.464C560.608 70.176 560.188 69.942 559.66 69.762C559.132 69.582 558.568 69.39 557.968 69.186C556.996 68.85 556.252 68.418 555.736 67.89C555.232 67.362 554.98 66.66 554.98 65.784C554.968 65.04 555.142 64.404 555.502 63.876C555.874 63.336 556.378 62.922 557.014 62.634C557.65 62.334 558.382 62.184 559.21 62.184C560.05 62.184 560.788 62.334 561.424 62.634C562.072 62.934 562.576 63.354 562.936 63.894C563.308 64.434 563.506 65.076 563.53 65.82H561.064C561.052 65.376 560.878 64.986 560.542 64.65C560.218 64.302 559.762 64.128 559.174 64.128C558.67 64.116 558.244 64.242 557.896 64.506C557.56 64.758 557.392 65.13 557.392 65.622C557.392 66.042 557.524 66.378 557.788 66.63C558.052 66.87 558.412 67.074 558.868 67.242C559.324 67.41 559.846 67.59 560.434 67.782C561.058 67.998 561.628 68.25 562.144 68.538C562.66 68.826 563.074 69.21 563.386 69.69C563.698 70.158 563.854 70.764 563.854 71.508C563.854 72.168 563.686 72.78 563.35 73.344C563.014 73.908 562.516 74.364 561.856 74.712C561.196 75.048 560.386 75.216 559.426 75.216ZM569.824 75V62.4H572.128V75H569.824ZM581.464 75V64.254H577.792V62.4H587.458V64.254H583.768V75H581.464ZM596.383 75V70.518L592.153 62.4H594.763L597.553 68.214L600.325 62.4H602.899L598.687 70.518V75H596.383ZM622.488 75.216C621.228 75.216 620.124 74.94 619.176 74.388C618.24 73.836 617.502 73.074 616.962 72.102C616.434 71.118 616.17 69.984 616.17 68.7C616.17 67.416 616.434 66.288 616.962 65.316C617.502 64.332 618.24 63.564 619.176 63.012C620.124 62.46 621.228 62.184 622.488 62.184C623.736 62.184 624.834 62.46 625.782 63.012C626.73 63.564 627.468 64.332 627.996 65.316C628.524 66.288 628.788 67.416 628.788 68.7C628.788 69.984 628.524 71.118 627.996 72.102C627.468 73.074 626.73 73.836 625.782 74.388C624.834 74.94 623.736 75.216 622.488 75.216ZM622.488 73.146C623.688 73.146 624.642 72.75 625.35 71.958C626.07 71.166 626.43 70.08 626.43 68.7C626.43 67.32 626.07 66.234 625.35 65.442C624.642 64.65 623.688 64.254 622.488 64.254C621.288 64.254 620.328 64.65 619.608 65.442C618.888 66.234 618.528 67.32 618.528 68.7C618.528 70.08 618.888 71.166 619.608 71.958C620.328 72.75 621.288 73.146 622.488 73.146ZM634.782 75V62.4H642.918V64.254H637.086V67.782H641.802V69.6H637.086V75H634.782ZM656.905 75V62.4H661.567C662.575 62.4 663.409 62.568 664.069 62.904C664.729 63.24 665.221 63.702 665.545 64.29C665.869 64.878 666.031 65.538 666.031 66.27C666.031 66.966 665.875 67.608 665.563 68.196C665.251 68.772 664.765 69.24 664.105 69.6C663.445 69.948 662.599 70.122 661.567 70.122H659.209V75H656.905ZM659.209 68.25H661.423C662.227 68.25 662.803 68.076 663.151 67.728C663.511 67.368 663.691 66.882 663.691 66.27C663.691 65.646 663.511 65.16 663.151 64.812C662.803 64.452 662.227 64.272 661.423 64.272H659.209V68.25ZM671.799 75V62.4H680.025V64.254H674.103V67.71H679.485V69.51H674.103V73.146H680.025V75H671.799ZM686.165 75V62.4H690.791C691.799 62.4 692.627 62.574 693.275 62.922C693.935 63.258 694.427 63.72 694.751 64.308C695.075 64.884 695.237 65.526 695.237 66.234C695.237 67.002 695.033 67.704 694.625 68.34C694.229 68.976 693.605 69.438 692.753 69.726L695.363 75H692.717L690.377 70.032H688.469V75H686.165ZM688.469 68.34H690.647C691.415 68.34 691.979 68.154 692.339 67.782C692.699 67.41 692.879 66.918 692.879 66.306C692.879 65.706 692.699 65.226 692.339 64.866C691.991 64.506 691.421 64.326 690.629 64.326H688.469V68.34ZM700.53 75L705.138 62.4H707.73L712.338 75H709.89L708.882 72.084H703.968L702.942 75H700.53ZM704.598 70.284H708.252L706.416 65.046L704.598 70.284ZM717.921 75V62.4H722.223C723.699 62.4 724.911 62.664 725.859 63.192C726.819 63.708 727.527 64.44 727.983 65.388C728.451 66.324 728.685 67.428 728.685 68.7C728.685 69.972 728.451 71.082 727.983 72.03C727.527 72.966 726.819 73.698 725.859 74.226C724.911 74.742 723.699 75 722.223 75H717.921ZM720.225 73.02H722.115C723.171 73.02 724.005 72.852 724.617 72.516C725.229 72.168 725.667 71.676 725.931 71.04C726.195 70.392 726.327 69.612 726.327 68.7C726.327 67.8 726.195 67.026 725.931 66.378C725.667 65.73 725.229 65.232 724.617 64.884C724.005 64.536 723.171 64.362 722.115 64.362H720.225V73.02ZM734.678 75V62.4H742.904V64.254H736.982V67.71H742.364V69.51H736.982V73.146H742.904V75H734.678ZM749.044 75V62.4H751.348L757.27 71.274V62.4H759.574V75H757.27L751.348 66.144V75H749.044ZM765.977 75V62.4H768.281V75H765.977ZM777.941 75V70.518L773.711 62.4H776.321L779.111 68.214L781.883 62.4H784.457L780.245 70.518V75H777.941ZM787.624 75L792.232 62.4H794.824L799.432 75H796.984L795.976 72.084H791.062L790.036 75H787.624ZM791.692 70.284H795.346L793.51 65.046L791.692 70.284Z" fill="black"/>
<line y1="42.5" x2="932" y2="42.5" stroke="black"/>
</svg>
