<svg width="788" height="71" viewBox="0 0 788 71" fill="none" xmlns="http://www.w3.org/2000/svg">
<path d="M103.95 35.36C101.83 35.36 100.01 34.91 98.4904 34.01C96.9704 33.09 95.8004 31.82 94.9804 30.2C94.1604 28.56 93.7504 26.67 93.7504 24.53C93.7504 22.39 94.1604 20.5 94.9804 18.86C95.8004 17.22 96.9704 15.94 98.4904 15.02C100.01 14.1 101.83 13.64 103.95 13.64C106.47 13.64 108.53 14.27 110.13 15.53C111.75 16.77 112.76 18.52 113.16 20.78H108.93C108.67 19.64 108.11 18.75 107.25 18.11C106.41 17.45 105.29 17.12 103.89 17.12C101.95 17.12 100.43 17.78 99.3304 19.1C98.2304 20.42 97.6804 22.23 97.6804 24.53C97.6804 26.83 98.2304 28.64 99.3304 29.96C100.43 31.26 101.95 31.91 103.89 31.91C105.29 31.91 106.41 31.61 107.25 31.01C108.11 30.39 108.67 29.54 108.93 28.46H113.16C112.76 30.62 111.75 32.31 110.13 33.53C108.53 34.75 106.47 35.36 103.95 35.36ZM116.56 35V14H120.4V22.73H129.82V14H133.66V35H129.82V25.85H120.4V35H116.56ZM137.741 35V14H151.451V17.09H141.581V22.85H150.551V25.85H141.581V31.91H151.451V35H137.741ZM155.085 35V14H159.645L166.335 27.32L172.935 14H177.495V35H173.655V20.51L167.805 32H164.775L158.925 20.51V35H155.085ZM181.569 35V14H185.409V35H181.569ZM198.989 35.36C196.869 35.36 195.049 34.91 193.529 34.01C192.009 33.09 190.839 31.82 190.019 30.2C189.199 28.56 188.789 26.67 188.789 24.53C188.789 22.39 189.199 20.5 190.019 18.86C190.839 17.22 192.009 15.94 193.529 15.02C195.049 14.1 196.869 13.64 198.989 13.64C201.509 13.64 203.569 14.27 205.169 15.53C206.789 16.77 207.799 18.52 208.199 20.78H203.969C203.709 19.64 203.149 18.75 202.289 18.11C201.449 17.45 200.329 17.12 198.929 17.12C196.989 17.12 195.469 17.78 194.369 19.1C193.269 20.42 192.719 22.23 192.719 24.53C192.719 26.83 193.269 28.64 194.369 29.96C195.469 31.26 196.989 31.91 198.929 31.91C200.329 31.91 201.449 31.61 202.289 31.01C203.149 30.39 203.709 29.54 203.969 28.46H208.199C207.799 30.62 206.789 32.31 205.169 33.53C203.569 34.75 201.509 35.36 198.989 35.36ZM209.985 35L217.665 14H221.985L229.665 35H225.585L223.905 30.14H215.715L214.005 35H209.985ZM216.765 27.14H222.855L219.795 18.41L216.765 27.14ZM232.37 35V14H236.21V32H245.51V35H232.37ZM256.042 35V14H259.882V35H256.042ZM263.952 35V14H267.792L277.662 28.79V14H281.502V35H277.662L267.792 20.24V35H263.952ZM291.663 35L283.983 14H288.093L294.033 31.07L300.003 14H304.053L296.373 35H291.663ZM306.55 35V14H320.26V17.09H310.39V22.85H319.36V25.85H310.39V31.91H320.26V35H306.55ZM323.894 35V14H327.734L337.604 28.79V14H341.444V35H337.604L327.734 20.24V35H323.894ZM350.405 35V17.09H344.285V14H360.395V17.09H354.245V35H350.405ZM372.318 35.36C370.218 35.36 368.378 34.9 366.798 33.98C365.238 33.06 364.008 31.79 363.108 30.17C362.228 28.53 361.788 26.64 361.788 24.5C361.788 22.36 362.228 20.48 363.108 18.86C364.008 17.22 365.238 15.94 366.798 15.02C368.378 14.1 370.218 13.64 372.318 13.64C374.398 13.64 376.228 14.1 377.808 15.02C379.388 15.94 380.618 17.22 381.498 18.86C382.378 20.48 382.818 22.36 382.818 24.5C382.818 26.64 382.378 28.53 381.498 30.17C380.618 31.79 379.388 33.06 377.808 33.98C376.228 34.9 374.398 35.36 372.318 35.36ZM372.318 31.91C374.318 31.91 375.908 31.25 377.088 29.93C378.288 28.61 378.888 26.8 378.888 24.5C378.888 22.2 378.288 20.39 377.088 19.07C375.908 17.75 374.318 17.09 372.318 17.09C370.318 17.09 368.718 17.75 367.518 19.07C366.318 20.39 365.718 22.2 365.718 24.5C365.718 26.8 366.318 28.61 367.518 29.93C368.718 31.25 370.318 31.91 372.318 31.91ZM386.208 35V14H393.918C395.598 14 396.978 14.29 398.058 14.87C399.158 15.43 399.978 16.2 400.518 17.18C401.058 18.14 401.328 19.21 401.328 20.39C401.328 21.67 400.988 22.84 400.308 23.9C399.648 24.96 398.608 25.73 397.188 26.21L401.538 35H397.128L393.228 26.72H390.048V35H386.208ZM390.048 23.9H393.678C394.958 23.9 395.898 23.59 396.498 22.97C397.098 22.35 397.398 21.53 397.398 20.51C397.398 19.51 397.098 18.71 396.498 18.11C395.918 17.51 394.968 17.21 393.648 17.21H390.048V23.9ZM409.597 35V27.53L402.547 14H406.897L411.547 23.69L416.167 14H420.457L413.437 27.53V35H409.597ZM430.065 35V14H434.625L441.315 27.32L447.915 14H452.475V35H448.635V20.51L442.785 32H439.755L433.905 20.51V35H430.065ZM455.2 35L462.88 14H467.2L474.88 35H470.8L469.12 30.14H460.93L459.22 35H455.2ZM461.98 27.14H468.07L465.01 18.41L461.98 27.14ZM477.585 35V14H481.425L491.295 28.79V14H495.135V35H491.295L481.425 20.24V35H477.585ZM497.856 35L505.536 14H509.856L517.536 35H513.456L511.776 30.14H503.586L501.876 35H497.856ZM504.636 27.14H510.726L507.666 18.41L504.636 27.14ZM528.22 35.36C526.24 35.36 524.51 34.91 523.03 34.01C521.55 33.11 520.4 31.86 519.58 30.26C518.76 28.64 518.35 26.76 518.35 24.62C518.35 22.46 518.77 20.56 519.61 18.92C520.47 17.26 521.68 15.97 523.24 15.05C524.82 14.11 526.69 13.64 528.85 13.64C531.31 13.64 533.35 14.23 534.97 15.41C536.59 16.59 537.64 18.22 538.12 20.3H533.83C533.51 19.32 532.93 18.56 532.09 18.02C531.25 17.46 530.17 17.18 528.85 17.18C526.75 17.18 525.13 17.85 523.99 19.19C522.85 20.51 522.28 22.33 522.28 24.65C522.28 26.97 522.84 28.77 523.96 30.05C525.1 31.31 526.64 31.94 528.58 31.94C530.48 31.94 531.91 31.43 532.87 30.41C533.85 29.37 534.44 28.01 534.64 26.33H529.33V23.45H538.51V35H534.97L534.67 32.24C533.99 33.24 533.14 34.01 532.12 34.55C531.1 35.09 529.8 35.36 528.22 35.36ZM542.243 35V14H555.953V17.09H546.083V22.85H555.053V25.85H546.083V31.91H555.953V35H542.243ZM559.587 35V14H564.147L570.837 27.32L577.437 14H581.997V35H578.157V20.51L572.307 32H569.277L563.427 20.51V35H559.587ZM586.071 35V14H599.781V17.09H589.911V22.85H598.881V25.85H589.911V31.91H599.781V35H586.071ZM603.415 35V14H607.255L617.125 28.79V14H620.965V35H617.125L607.255 20.24V35H603.415ZM629.926 35V17.09H623.806V14H639.916V17.09H633.766V35H629.926ZM657.079 35.36C655.539 35.36 654.179 35.1 652.999 34.58C651.819 34.04 650.889 33.28 650.209 32.3C649.529 31.3 649.179 30.09 649.159 28.67H653.209C653.249 29.65 653.599 30.48 654.259 31.16C654.939 31.82 655.869 32.15 657.049 32.15C658.069 32.15 658.879 31.91 659.479 31.43C660.079 30.93 660.379 30.27 660.379 29.45C660.379 28.59 660.109 27.92 659.569 27.44C659.049 26.96 658.349 26.57 657.469 26.27C656.589 25.97 655.649 25.65 654.649 25.31C653.029 24.75 651.789 24.03 650.929 23.15C650.089 22.27 649.669 21.1 649.669 19.64C649.649 18.4 649.939 17.34 650.539 16.46C651.159 15.56 651.999 14.87 653.059 14.39C654.119 13.89 655.339 13.64 656.719 13.64C658.119 13.64 659.349 13.89 660.409 14.39C661.489 14.89 662.329 15.59 662.929 16.49C663.549 17.39 663.879 18.46 663.919 19.7H659.809C659.789 18.96 659.499 18.31 658.939 17.75C658.399 17.17 657.639 16.88 656.659 16.88C655.819 16.86 655.109 17.07 654.529 17.51C653.969 17.93 653.689 18.55 653.689 19.37C653.689 20.07 653.909 20.63 654.349 21.05C654.789 21.45 655.389 21.79 656.149 22.07C656.909 22.35 657.779 22.65 658.759 22.97C659.799 23.33 660.749 23.75 661.609 24.23C662.469 24.71 663.159 25.35 663.679 26.15C664.199 26.93 664.459 27.94 664.459 29.18C664.459 30.28 664.179 31.3 663.619 32.24C663.059 33.18 662.229 33.94 661.129 34.52C660.029 35.08 658.679 35.36 657.079 35.36ZM672.331 35V27.53L665.281 14H669.631L674.281 23.69L678.901 14H683.191L676.171 27.53V35H672.331ZM691.62 35.36C690.08 35.36 688.72 35.1 687.54 34.58C686.36 34.04 685.43 33.28 684.75 32.3C684.07 31.3 683.72 30.09 683.7 28.67H687.75C687.79 29.65 688.14 30.48 688.8 31.16C689.48 31.82 690.41 32.15 691.59 32.15C692.61 32.15 693.42 31.91 694.02 31.43C694.62 30.93 694.92 30.27 694.92 29.45C694.92 28.59 694.65 27.92 694.11 27.44C693.59 26.96 692.89 26.57 692.01 26.27C691.13 25.97 690.19 25.65 689.19 25.31C687.57 24.75 686.33 24.03 685.47 23.15C684.63 22.27 684.21 21.1 684.21 19.64C684.19 18.4 684.48 17.34 685.08 16.46C685.7 15.56 686.54 14.87 687.6 14.39C688.66 13.89 689.88 13.64 691.26 13.64C692.66 13.64 693.89 13.89 694.95 14.39C696.03 14.89 696.87 15.59 697.47 16.49C698.09 17.39 698.42 18.46 698.46 19.7H694.35C694.33 18.96 694.04 18.31 693.48 17.75C692.94 17.17 692.18 16.88 691.2 16.88C690.36 16.86 689.65 17.07 689.07 17.51C688.51 17.93 688.23 18.55 688.23 19.37C688.23 20.07 688.45 20.63 688.89 21.05C689.33 21.45 689.93 21.79 690.69 22.07C691.45 22.35 692.32 22.65 693.3 22.97C694.34 23.33 695.29 23.75 696.15 24.23C697.01 24.71 697.7 25.35 698.22 26.15C698.74 26.93 699 27.94 699 29.18C699 30.28 698.72 31.3 698.16 32.24C697.6 33.18 696.77 33.94 695.67 34.52C694.57 35.08 693.22 35.36 691.62 35.36ZM706.977 35V17.09H700.857V14H716.967V17.09H710.817V35H706.977ZM719.811 35V14H733.521V17.09H723.651V22.85H732.621V25.85H723.651V31.91H733.521V35H719.811ZM737.155 35V14H741.715L748.405 27.32L755.005 14H759.565V35H755.725V20.51L749.875 32H746.845L740.995 20.51V35H737.155Z" fill="black"/>
<line x1="84" y1="43.5" x2="788" y2="43.5" stroke="black"/>
<path d="M93.4452 62V52.2H96.4552C98.1818 52.2 99.4512 52.6387 100.263 53.516C101.085 54.3933 101.495 55.5973 101.495 57.128C101.495 58.6307 101.085 59.8207 100.263 60.698C99.4512 61.566 98.1818 62 96.4552 62H93.4452ZM94.6212 61.02H96.4272C97.3792 61.02 98.1352 60.866 98.6952 60.558C99.2645 60.2407 99.6705 59.7927 99.9132 59.214C100.156 58.626 100.277 57.9307 100.277 57.128C100.277 56.3067 100.156 55.602 99.9132 55.014C99.6705 54.426 99.2645 53.9733 98.6952 53.656C98.1352 53.3387 97.3792 53.18 96.4272 53.18H94.6212V61.02ZM106.273 62V52.2H112.335V53.166H107.449V56.582H111.915V57.534H107.449V61.034H112.335V62H106.273ZM117.256 62V52.2H120.476C121.241 52.2 121.871 52.326 122.366 52.578C122.86 52.83 123.224 53.1707 123.458 53.6C123.7 54.0293 123.822 54.5147 123.822 55.056C123.822 55.588 123.705 56.0687 123.472 56.498C123.238 56.9273 122.874 57.2727 122.38 57.534C121.885 57.786 121.25 57.912 120.476 57.912H118.432V62H117.256ZM118.432 56.918H120.448C121.232 56.918 121.787 56.7547 122.114 56.428C122.45 56.092 122.618 55.6347 122.618 55.056C122.618 54.468 122.45 54.0107 122.114 53.684C121.787 53.348 121.232 53.18 120.448 53.18H118.432V56.918ZM126.597 62L130.209 52.2H131.455L135.053 62H133.807L132.911 59.48H128.739L127.829 62H126.597ZM129.089 58.528H132.561L130.825 53.684L129.089 58.528ZM139.589 62V52.2H142.753C143.519 52.2 144.144 52.326 144.629 52.578C145.115 52.83 145.474 53.1753 145.707 53.614C145.941 54.0527 146.057 54.538 146.057 55.07C146.057 55.686 145.889 56.2413 145.553 56.736C145.227 57.2307 144.713 57.5807 144.013 57.786L146.155 62H144.769L142.781 57.954H142.697H140.765V62H139.589ZM140.765 57.03H142.669C143.425 57.03 143.976 56.848 144.321 56.484C144.667 56.12 144.839 55.6533 144.839 55.084C144.839 54.5053 144.667 54.048 144.321 53.712C143.985 53.3667 143.43 53.194 142.655 53.194H140.765V57.03ZM153.264 62V53.166H150.338V52.2H157.366V53.166H154.44V62H153.264ZM161.882 62V52.2H163.254L166.782 59.032L170.282 52.2H171.668V62H170.492V54.3L167.216 60.6H166.334L163.058 54.314V62H161.882ZM176.816 62V52.2H182.878V53.166H177.992V56.582H182.458V57.534H177.992V61.034H182.878V62H176.816ZM187.798 62V52.2H188.974L194.196 60.054V52.2H195.372V62H194.196L188.974 54.146V62H187.798ZM202.826 62V53.166H199.9V52.2H206.928V53.166H204.002V62H202.826ZM222.681 62.168C221.72 62.168 220.875 61.958 220.147 61.538C219.429 61.1087 218.864 60.5113 218.453 59.746C218.052 58.9807 217.851 58.0987 217.851 57.1C217.851 56.1013 218.052 55.224 218.453 54.468C218.864 53.7027 219.429 53.1053 220.147 52.676C220.875 52.2467 221.72 52.032 222.681 52.032C223.652 52.032 224.497 52.2467 225.215 52.676C225.943 53.1053 226.508 53.7027 226.909 54.468C227.311 55.224 227.511 56.1013 227.511 57.1C227.511 58.0987 227.311 58.9807 226.909 59.746C226.508 60.5113 225.943 61.1087 225.215 61.538C224.497 61.958 223.652 62.168 222.681 62.168ZM222.681 61.132C223.4 61.132 224.03 60.9733 224.571 60.656C225.122 60.3293 225.547 59.8673 225.845 59.27C226.153 58.6633 226.307 57.94 226.307 57.1C226.307 56.26 226.153 55.5413 225.845 54.944C225.547 54.3467 225.122 53.8893 224.571 53.572C224.03 53.2453 223.4 53.082 222.681 53.082C221.963 53.082 221.328 53.2453 220.777 53.572C220.236 53.8893 219.811 54.3467 219.503 54.944C219.205 55.5413 219.055 56.26 219.055 57.1C219.055 57.94 219.205 58.6633 219.503 59.27C219.811 59.8673 220.236 60.3293 220.777 60.656C221.328 60.9733 221.963 61.132 222.681 61.132ZM232.288 62V52.2H238.252V53.166H233.464V56.61H237.538V57.562H233.464V62H232.288ZM253.93 62.168C252.968 62.168 252.138 61.958 251.438 61.538C250.747 61.1087 250.21 60.516 249.828 59.76C249.445 58.9947 249.254 58.108 249.254 57.1C249.254 56.1013 249.445 55.224 249.828 54.468C250.21 53.7027 250.747 53.1053 251.438 52.676C252.138 52.2467 252.968 52.032 253.93 52.032C255.05 52.032 255.96 52.3027 256.66 52.844C257.369 53.376 257.822 54.1227 258.018 55.084H256.716C256.566 54.4773 256.258 53.992 255.792 53.628C255.334 53.2547 254.714 53.068 253.93 53.068C253.23 53.068 252.618 53.2313 252.096 53.558C251.573 53.8753 251.167 54.3373 250.878 54.944C250.598 55.5413 250.458 56.26 250.458 57.1C250.458 57.94 250.598 58.6633 250.878 59.27C251.167 59.8673 251.573 60.3293 252.096 60.656C252.618 60.9733 253.23 61.132 253.93 61.132C254.714 61.132 255.334 60.9547 255.792 60.6C256.258 60.236 256.566 59.7553 256.716 59.158H258.018C257.822 60.1007 257.369 60.838 256.66 61.37C255.96 61.902 255.05 62.168 253.93 62.168ZM262.788 62V52.2H263.964V56.526H269.046V52.2H270.222V62H269.046V57.492H263.964V62H262.788ZM275.37 62V52.2H281.432V53.166H276.546V56.582H281.012V57.534H276.546V61.034H281.432V62H275.37ZM286.352 62V52.2H287.724L291.252 59.032L294.752 52.2H296.138V62H294.962V54.3L291.686 60.6H290.804L287.528 54.314V62H286.352ZM301.286 62V52.2H302.462V62H301.286ZM310.741 62.168C310.023 62.168 309.397 62.0373 308.865 61.776C308.333 61.5147 307.923 61.1507 307.633 60.684C307.344 60.2173 307.199 59.676 307.199 59.06H308.431C308.431 59.4427 308.52 59.7973 308.697 60.124C308.875 60.4413 309.131 60.698 309.467 60.894C309.813 61.0807 310.237 61.174 310.741 61.174C311.404 61.174 311.917 61.0153 312.281 60.698C312.645 60.3807 312.827 59.984 312.827 59.508C312.827 59.116 312.743 58.8033 312.575 58.57C312.407 58.3273 312.179 58.1313 311.889 57.982C311.609 57.8327 311.283 57.702 310.909 57.59C310.545 57.478 310.163 57.352 309.761 57.212C309.005 56.9507 308.445 56.6287 308.081 56.246C307.717 55.854 307.535 55.3453 307.535 54.72C307.526 54.1973 307.647 53.7353 307.899 53.334C308.151 52.9233 308.506 52.606 308.963 52.382C309.43 52.1487 309.981 52.032 310.615 52.032C311.241 52.032 311.782 52.1487 312.239 52.382C312.706 52.6153 313.065 52.9373 313.317 53.348C313.579 53.7587 313.714 54.2253 313.723 54.748H312.491C312.491 54.4773 312.421 54.2113 312.281 53.95C312.141 53.6793 311.927 53.46 311.637 53.292C311.357 53.124 311.003 53.04 310.573 53.04C310.041 53.0307 309.603 53.166 309.257 53.446C308.921 53.726 308.753 54.1133 308.753 54.608C308.753 55.028 308.87 55.35 309.103 55.574C309.346 55.798 309.682 55.9847 310.111 56.134C310.541 56.274 311.035 56.4373 311.595 56.624C312.062 56.792 312.482 56.988 312.855 57.212C313.229 57.436 313.518 57.7253 313.723 58.08C313.938 58.4347 314.045 58.8873 314.045 59.438C314.045 59.9047 313.924 60.348 313.681 60.768C313.439 61.1787 313.07 61.5147 312.575 61.776C312.09 62.0373 311.479 62.168 310.741 62.168ZM320.857 62V53.166H317.931V52.2H324.959V53.166H322.033V62H320.857ZM329.475 62V52.2H332.639C333.404 52.2 334.029 52.326 334.515 52.578C335 52.83 335.359 53.1753 335.593 53.614C335.826 54.0527 335.943 54.538 335.943 55.07C335.943 55.686 335.775 56.2413 335.439 56.736C335.112 57.2307 334.599 57.5807 333.899 57.786L336.041 62H334.655L332.667 57.954H332.583H330.651V62H329.475ZM330.651 57.03H332.555C333.311 57.03 333.861 56.848 334.207 56.484C334.552 56.12 334.725 55.6533 334.725 55.084C334.725 54.5053 334.552 54.048 334.207 53.712C333.871 53.3667 333.315 53.194 332.541 53.194H330.651V57.03ZM342.879 62V58.276L339.687 52.2H341.017L343.467 57.156L345.917 52.2H347.233L344.055 58.276V62H342.879ZM365.201 63.4V51.92H366.377V63.4H365.201ZM381.647 62.168C380.928 62.168 380.28 62.028 379.701 61.748C379.122 61.4587 378.66 61.0247 378.315 60.446C377.979 59.8673 377.811 59.1347 377.811 58.248V52.2H379.603V58.262C379.603 59.0273 379.785 59.5967 380.149 59.97C380.522 60.3433 381.036 60.53 381.689 60.53C382.333 60.53 382.842 60.3433 383.215 59.97C383.588 59.5967 383.775 59.0273 383.775 58.262V52.2H385.567V58.248C385.567 59.1347 385.39 59.8673 385.035 60.446C384.68 61.0247 384.204 61.4587 383.607 61.748C383.019 62.028 382.366 62.168 381.647 62.168ZM390.476 62V52.2H392.268L396.874 59.102V52.2H398.666V62H396.874L392.268 55.112V62H390.476ZM403.646 62V52.2H405.438V62H403.646ZM413.259 62L409.675 52.2H411.593L414.365 60.166L417.151 52.2H419.041L415.457 62H413.259ZM423.287 62V52.2H429.685V53.642H425.079V56.33H429.265V57.73H425.079V60.558H429.685V62H423.287ZM434.46 62V52.2H438.058C438.842 52.2 439.486 52.3353 439.99 52.606C440.504 52.8673 440.886 53.2267 441.138 53.684C441.39 54.132 441.516 54.6313 441.516 55.182C441.516 55.7793 441.358 56.3253 441.04 56.82C440.732 57.3147 440.247 57.674 439.584 57.898L441.614 62H439.556L437.736 58.136H436.252V62H434.46ZM436.252 56.82H437.946C438.544 56.82 438.982 56.6753 439.262 56.386C439.542 56.0967 439.682 55.714 439.682 55.238C439.682 54.7713 439.542 54.398 439.262 54.118C438.992 53.838 438.548 53.698 437.932 53.698H436.252V56.82ZM449.609 62.168C448.89 62.168 448.256 62.0467 447.705 61.804C447.154 61.552 446.72 61.1973 446.403 60.74C446.086 60.2733 445.922 59.7087 445.913 59.046H447.803C447.822 59.5033 447.985 59.8907 448.293 60.208C448.61 60.516 449.044 60.67 449.595 60.67C450.071 60.67 450.449 60.558 450.729 60.334C451.009 60.1007 451.149 59.7927 451.149 59.41C451.149 59.0087 451.023 58.696 450.771 58.472C450.528 58.248 450.202 58.066 449.791 57.926C449.38 57.786 448.942 57.6367 448.475 57.478C447.719 57.2167 447.14 56.8807 446.739 56.47C446.347 56.0593 446.151 55.5133 446.151 54.832C446.142 54.2533 446.277 53.7587 446.557 53.348C446.846 52.928 447.238 52.606 447.733 52.382C448.228 52.1487 448.797 52.032 449.441 52.032C450.094 52.032 450.668 52.1487 451.163 52.382C451.667 52.6153 452.059 52.942 452.339 53.362C452.628 53.782 452.782 54.2813 452.801 54.86H450.883C450.874 54.5147 450.738 54.2113 450.477 53.95C450.225 53.6793 449.87 53.544 449.413 53.544C449.021 53.5347 448.69 53.6327 448.419 53.838C448.158 54.034 448.027 54.3233 448.027 54.706C448.027 55.0327 448.13 55.294 448.335 55.49C448.54 55.6767 448.82 55.8353 449.175 55.966C449.53 56.0967 449.936 56.2367 450.393 56.386C450.878 56.554 451.322 56.75 451.723 56.974C452.124 57.198 452.446 57.4967 452.689 57.87C452.932 58.234 453.053 58.7053 453.053 59.284C453.053 59.7973 452.922 60.2733 452.661 60.712C452.4 61.1507 452.012 61.5053 451.499 61.776C450.986 62.0373 450.356 62.168 449.609 62.168ZM457.696 62V52.2H459.488V62H457.696ZM466.75 62V53.642H463.894V52.2H471.412V53.642H468.542V62H466.75ZM478.353 62V58.514L475.063 52.2H477.093L479.263 56.722L481.419 52.2H483.421L480.145 58.514V62H478.353ZM498.657 62.168C497.677 62.168 496.819 61.9533 496.081 61.524C495.353 61.0947 494.779 60.502 494.359 59.746C493.949 58.9807 493.743 58.0987 493.743 57.1C493.743 56.1013 493.949 55.224 494.359 54.468C494.779 53.7027 495.353 53.1053 496.081 52.676C496.819 52.2467 497.677 52.032 498.657 52.032C499.628 52.032 500.482 52.2467 501.219 52.676C501.957 53.1053 502.531 53.7027 502.941 54.468C503.352 55.224 503.557 56.1013 503.557 57.1C503.557 58.0987 503.352 58.9807 502.941 59.746C502.531 60.502 501.957 61.0947 501.219 61.524C500.482 61.9533 499.628 62.168 498.657 62.168ZM498.657 60.558C499.591 60.558 500.333 60.25 500.883 59.634C501.443 59.018 501.723 58.1733 501.723 57.1C501.723 56.0267 501.443 55.182 500.883 54.566C500.333 53.95 499.591 53.642 498.657 53.642C497.724 53.642 496.977 53.95 496.417 54.566C495.857 55.182 495.577 56.0267 495.577 57.1C495.577 58.1733 495.857 59.018 496.417 59.634C496.977 60.25 497.724 60.558 498.657 60.558ZM508.219 62V52.2H514.547V53.642H510.011V56.386H513.679V57.8H510.011V62H508.219ZM525.426 62V52.2H529.052C529.836 52.2 530.485 52.3307 530.998 52.592C531.512 52.8533 531.894 53.2127 532.146 53.67C532.398 54.1273 532.524 54.6407 532.524 55.21C532.524 55.7513 532.403 56.2507 532.16 56.708C531.918 57.156 531.54 57.52 531.026 57.8C530.513 58.0707 529.855 58.206 529.052 58.206H527.218V62H525.426ZM527.218 56.75H528.94C529.566 56.75 530.014 56.6147 530.284 56.344C530.564 56.064 530.704 55.686 530.704 55.21C530.704 54.7247 530.564 54.3467 530.284 54.076C530.014 53.796 529.566 53.656 528.94 53.656H527.218V56.75ZM537.01 62V52.2H543.408V53.642H538.802V56.33H542.988V57.73H538.802V60.558H543.408V62H537.01ZM548.184 62V52.2H551.782C552.566 52.2 553.21 52.3353 553.714 52.606C554.227 52.8673 554.61 53.2267 554.862 53.684C555.114 54.132 555.24 54.6313 555.24 55.182C555.24 55.7793 555.081 56.3253 554.764 56.82C554.456 57.3147 553.971 57.674 553.308 57.898L555.338 62H553.28L551.46 58.136H549.976V62H548.184ZM549.976 56.82H551.67C552.267 56.82 552.706 56.6753 552.986 56.386C553.266 56.0967 553.406 55.714 553.406 55.238C553.406 54.7713 553.266 54.398 552.986 54.118C552.715 53.838 552.272 53.698 551.656 53.698H549.976V56.82ZM559.357 62L562.941 52.2H564.957L568.541 62H566.637L565.853 59.732H562.031L561.233 62H559.357ZM562.521 58.332H565.363L563.935 54.258L562.521 58.332ZM572.883 62V52.2H576.229C577.377 52.2 578.32 52.4053 579.057 52.816C579.804 53.2173 580.354 53.7867 580.709 54.524C581.073 55.252 581.255 56.1107 581.255 57.1C581.255 58.0893 581.073 58.9527 580.709 59.69C580.354 60.418 579.804 60.9873 579.057 61.398C578.32 61.7993 577.377 62 576.229 62H572.883ZM574.675 60.46H576.145C576.966 60.46 577.615 60.3293 578.091 60.068C578.567 59.7973 578.908 59.4147 579.113 58.92C579.318 58.416 579.421 57.8093 579.421 57.1C579.421 56.4 579.318 55.798 579.113 55.294C578.908 54.79 578.567 54.4027 578.091 54.132C577.615 53.8613 576.966 53.726 576.145 53.726H574.675V60.46ZM585.916 62V52.2H592.314V53.642H587.708V56.33H591.894V57.73H587.708V60.558H592.314V62H585.916ZM597.09 62V52.2H598.882L603.488 59.102V52.2H605.28V62H603.488L598.882 55.112V62H597.09ZM610.26 62V52.2H612.052V62H610.26ZM619.565 62V58.514L616.275 52.2H618.305L620.475 56.722L622.631 52.2H624.633L621.357 58.514V62H619.565ZM627.096 62L630.68 52.2H632.696L636.28 62H634.376L633.592 59.732H629.77L628.972 62H627.096ZM630.26 58.332H633.102L631.674 54.258L630.26 58.332Z" fill="black"/>
<path d="M15.6739 60.9628L19.504 41.223C19.7738 39.8323 20.9916 38.8281 22.4082 38.8281H37.4979C38.9145 38.8281 40.1323 39.8323 40.4021 41.223L44.2322 60.9628C44.4979 62.3322 43.449 63.6042 42.0541 63.6042H17.852C16.4571 63.6042 15.4082 62.3322 15.6739 60.9628Z" fill="#A8ABFF"/>
<path d="M36.2395 34.0208C36.2395 35.2462 35.2462 36.2396 34.0208 36.2396C32.7954 36.2396 31.802 35.2462 31.802 34.0208C31.802 32.7955 32.7954 31.8021 34.0208 31.8021C35.2462 31.8021 36.2395 32.7955 36.2395 34.0208Z" fill="#A8ABFF"/>
<path d="M16.8448 17.0823L16.3456 17.1116L16.8448 17.0823ZM21.921 18.9929L21.5045 18.7163L21.921 18.9929ZM15.5757 22.492L16.0002 22.7563L15.5757 22.492ZM18.4311 30.4527L18.153 30.8683L18.4311 30.4527ZM23.8246 26.95L24.2818 26.7475L23.8246 26.95ZM20.9692 23.5645L20.677 23.9702H20.677L20.9692 23.5645ZM19.9039 22.3538C19.6517 22.2413 19.3561 22.3545 19.2436 22.6067C19.1311 22.8589 19.2443 23.1545 19.4965 23.267L19.9039 22.3538ZM19.2811 31.994C19.5455 32.0737 19.8244 31.9239 19.904 31.6594C19.9836 31.395 19.8338 31.1161 19.5694 31.0365L19.2811 31.994ZM14.6663 31.5153L14.9242 31.9436L14.6663 31.5153ZM21.9633 33.4259L22.1496 32.9619L21.9633 33.4259ZM19.4252 32.5843L19.5646 32.1042L19.4252 32.5843ZM17.9606 31.6672C17.6927 31.6 17.4211 31.7626 17.3539 32.0305C17.2867 32.2983 17.4493 32.5699 17.7172 32.6371L17.9606 31.6672ZM19.383 41.9198L18.8978 41.799L19.383 41.9198ZM13.0377 39.6908L12.6002 39.4487L13.0377 39.6908ZM43.1777 16.127L42.9801 16.5863L43.1777 16.127ZM34.2943 13.898L34.7108 14.1746V14.1746L34.2943 13.898ZM38.1015 23.4509L38.2776 22.983V22.983L38.1015 23.4509ZM40.005 24.4006L39.7377 24.8231L40.005 24.4006ZM41.5176 26.31C41.6897 26.526 42.0043 26.5615 42.2203 26.3894C42.4362 26.2173 42.4717 25.9027 42.2996 25.6868L41.5176 26.31ZM54.2819 39.3725L53.9467 39.7436C53.9554 39.7514 53.9644 39.7589 53.9736 39.7661L54.2819 39.3725ZM46.0061 58.7951C45.8293 58.583 45.514 58.5544 45.3019 58.7313C45.0898 58.9082 45.0613 59.2234 45.2381 59.4355L46.0061 58.7951ZM46.0991 61.5674L46.5899 61.4719L46.0991 61.5674ZM20.4692 13.7232C20.4692 13.9993 20.6931 14.2232 20.9692 14.2232C21.2454 14.2232 21.4692 13.9993 21.4692 13.7232H20.4692ZM21.4692 19.9482C21.4692 19.6721 21.2454 19.4482 20.9692 19.4482C20.6931 19.4482 20.4692 19.6721 20.4692 19.9482H21.4692ZM20.4692 23.7144C20.4692 23.9905 20.6931 24.2144 20.9692 24.2144C21.2454 24.2144 21.4692 23.9905 21.4692 23.7144H20.4692ZM13.6061 61.5674L13.1153 61.4719L13.6061 61.5674ZM17.3913 44.7266C17.444 44.4555 17.267 44.1931 16.996 44.1403C16.7249 44.0876 16.4624 44.2646 16.4097 44.5357L17.3913 44.7266ZM18.7624 32.4408C18.7097 32.7119 18.8866 32.9744 19.1577 33.0271C19.4288 33.0798 19.6913 32.9028 19.744 32.6318L18.7624 32.4408ZM20.0247 31.1888C20.0774 30.9177 19.9004 30.6552 19.6293 30.6025C19.3583 30.5498 19.0958 30.7268 19.0431 30.9978L20.0247 31.1888ZM55.999 69.6025L56.2623 70.0276L55.999 69.6025ZM54.1071 69.2899L53.7231 69.6102L54.1071 69.2899ZM17.9809 38.799L17.7956 39.2633L17.9809 38.799ZM17.6273 38.6395L17.3916 39.0805L17.6273 38.6395ZM66.7385 49.1306L66.4302 49.5242L66.7385 49.1306ZM67.3004 50.2663L67.8004 50.2622L67.3004 50.2663ZM20.0337 21.2344L20.1519 20.7486L20.0337 21.2344ZM21.189 13.9483L21.6247 13.7031L21.189 13.9483ZM19.4496 11.7807L19.67 12.2294L19.4496 11.7807ZM35.5 1.97916C54.013 1.97916 69.0208 16.9869 69.0208 35.5H70.0208C70.0208 16.4347 54.5653 0.979156 35.5 0.979156V1.97916ZM13.9044 61.1384C6.61099 54.9887 1.97913 45.7855 1.97913 35.5H0.979126C0.979126 46.0926 5.75067 55.5713 13.2598 61.9029L13.9044 61.1384ZM35.5 69.0208C30.2758 69.0208 25.3321 67.8261 20.926 65.6955L20.4906 66.5957C25.0296 68.7906 30.1218 70.0208 35.5 70.0208V69.0208ZM50.8925 65.2857C46.2836 67.6724 41.05 69.0208 35.5 69.0208V70.0208C41.2138 70.0208 46.6047 68.6322 51.3524 66.1737L50.8925 65.2857ZM69.0208 35.5C69.0208 40.2526 68.032 44.773 66.2494 48.8677L67.1663 49.2669C69.0027 45.0486 70.0208 40.3925 70.0208 35.5H69.0208ZM1.97913 35.5C1.97913 22.1066 9.83403 10.5468 21.1906 5.17795L20.7632 4.27388C9.07019 9.80182 0.979126 21.7055 0.979126 35.5H1.97913ZM19.2291 11.3319C18.4709 11.7044 17.6952 12.3211 17.1359 13.2728C16.5756 14.226 16.2503 15.4849 16.3456 17.1116L17.3439 17.0531C17.2584 15.594 17.5523 14.5377 17.998 13.7795C18.4446 13.0196 19.0618 12.5283 19.67 12.2294L19.2291 11.3319ZM16.3456 17.1116C16.4275 18.5088 16.7165 19.5257 17.1785 20.2124C17.6559 20.922 18.3062 21.2577 19.0074 21.2837C19.6804 21.3088 20.3473 21.048 20.9104 20.6803C21.4779 20.3098 21.9827 19.8037 22.3375 19.2695L21.5045 18.7163C21.2248 19.1374 20.8174 19.5468 20.3637 19.843C19.9057 20.142 19.4423 20.2992 19.0445 20.2844C18.675 20.2707 18.314 20.1088 18.0082 19.6542C17.6869 19.1766 17.4207 18.3625 17.3439 17.0531L16.3456 17.1116ZM22.3375 19.2695C22.9113 18.4057 22.8786 17.2999 22.6622 16.33C22.4419 15.3425 22.0062 14.3809 21.6247 13.7031L20.7533 14.1936C21.1035 14.8158 21.4936 15.6842 21.6862 16.5478C21.8828 17.429 21.8504 18.1955 21.5045 18.7163L22.3375 19.2695ZM21.4692 13.1502V12.9395H20.4692V13.1502H21.4692ZM20.1519 20.7486C19.3989 20.5654 18.4615 20.4604 17.5583 20.6323C16.6432 20.8065 15.7474 21.2705 15.1513 22.2277L16.0002 22.7563C16.4171 22.0867 17.0399 21.749 17.7453 21.6147C18.4625 21.4781 19.2475 21.5577 19.9155 21.7202L20.1519 20.7486ZM15.1513 22.2277C14.2934 23.6055 14.0166 25.1106 14.505 26.6258C14.9878 28.1236 16.1948 29.558 18.153 30.8683L18.7092 30.0372C16.8603 28.8001 15.8464 27.5278 15.4567 26.319C15.0727 25.1275 15.2718 23.926 16.0002 22.7563L15.1513 22.2277ZM18.153 30.8683C20.1923 32.2328 22.105 32.126 23.3463 31.1198C24.5627 30.1337 25.0025 28.3751 24.2818 26.7475L23.3674 27.1524C23.9158 28.3907 23.5624 29.6573 22.7166 30.343C21.8956 31.0085 20.4771 31.2201 18.7092 30.0372L18.153 30.8683ZM24.2818 26.7475C23.5576 25.1121 22.301 23.9073 21.2614 23.1587L20.677 23.9702C21.6293 24.656 22.739 25.7333 23.3674 27.1524L24.2818 26.7475ZM21.2614 23.1587C20.7388 22.7825 20.2572 22.5114 19.9039 22.3538L19.4965 23.267C19.7786 23.3929 20.2013 23.6277 20.677 23.9702L21.2614 23.1587ZM20.4692 22.5214V23.5645H21.4692V22.5214H20.4692ZM19.5694 31.0365C19.0097 30.868 18.099 30.6687 17.156 30.6102C16.2344 30.5531 15.1789 30.6229 14.4083 31.0869L14.9242 31.9436C15.4227 31.6434 16.218 31.554 17.0941 31.6083C17.949 31.6613 18.7833 31.8441 19.2811 31.994L19.5694 31.0365ZM14.4083 31.0869C13.4381 31.6712 12.9024 32.8027 12.8579 33.964C12.8129 35.1382 13.2636 36.4073 14.3455 37.3122L14.9871 36.5451C14.1654 35.8578 13.8229 34.8979 13.8572 34.0023C13.892 33.0937 14.3081 32.3146 14.9242 31.9436L14.4083 31.0869ZM14.3455 37.3122C15.3591 38.1599 16.6983 38.8302 18.0776 39.1658C19.4529 39.5005 20.9195 39.514 22.1609 38.9801L21.7657 38.0615C20.7862 38.4828 19.5562 38.4964 18.314 38.1942C17.0759 37.8929 15.8771 37.2895 14.9871 36.5451L14.3455 37.3122ZM22.1609 38.9801C23.5344 38.3893 23.9785 37.021 23.8896 35.8171C23.8448 35.2098 23.6659 34.6094 23.3787 34.1078C23.0937 33.61 22.6809 33.1752 22.1496 32.9619L21.777 33.8899C22.0388 33.995 22.3003 34.2368 22.5109 34.6047C22.7194 34.9689 22.8578 35.4233 22.8923 35.8907C22.9621 36.8363 22.6131 37.697 21.7657 38.0615L22.1609 38.9801ZM22.1496 32.9619C21.4029 32.6621 20.4203 32.3525 19.5646 32.1042L19.2859 33.0645C20.1334 33.3105 21.0776 33.6091 21.777 33.8899L22.1496 32.9619ZM19.5646 32.1042C18.9159 31.9159 18.3306 31.76 17.9606 31.6672L17.7172 32.6371C18.0751 32.7269 18.6485 32.8795 19.2859 33.0645L19.5646 32.1042ZM17.7956 39.2633C18.0962 39.3834 18.4692 39.6329 18.7161 40.0317C18.9539 40.4156 19.1017 40.9801 18.8978 41.799L19.8681 42.0407C20.132 40.9814 19.9573 40.1366 19.5663 39.5052C19.1845 38.8885 18.6225 38.5167 18.1663 38.3346L17.7956 39.2633ZM18.8978 41.799C18.5951 43.014 18.1688 43.5799 17.737 43.84C17.3029 44.1014 16.7425 44.1278 15.9915 43.9771L15.7946 44.9575C16.6299 45.1252 17.4972 45.1517 18.2529 44.6966C19.0108 44.2402 19.5362 43.3732 19.8681 42.0407L18.8978 41.799ZM15.9915 43.9771C15.2707 43.8324 14.2699 43.3942 13.6479 42.7006C13.3441 42.3618 13.142 41.9755 13.0877 41.5396C13.0336 41.1057 13.1201 40.5745 13.4751 39.933L12.6002 39.4487C12.1621 40.2401 12.0106 40.9827 12.0954 41.6632C12.1799 42.3418 12.4933 42.9109 12.9034 43.3682C13.709 44.2666 14.9291 44.7838 15.7946 44.9575L15.9915 43.9771ZM13.4751 39.933C13.991 39.001 14.7001 38.6747 15.3994 38.6207C16.1316 38.5642 16.8816 38.8079 17.3916 39.0805L17.8629 38.1985C17.2434 37.8674 16.3013 37.5481 15.3224 37.6237C14.3106 37.7018 13.2897 38.2031 12.6002 39.4487L13.4751 39.933ZM51.2538 25.1698C49.6568 21.3228 47.1172 17.2773 43.3753 15.6677L42.9801 16.5863C46.345 18.0337 48.7547 21.758 50.3303 25.5532L51.2538 25.1698ZM33.8778 13.6214C33.3223 14.4577 33.1559 15.4742 33.2305 16.5016C33.3052 17.5301 33.6231 18.6036 34.0775 19.5986C34.5324 20.595 35.1331 21.5318 35.7913 22.2869C36.4429 23.0343 37.1821 23.6391 37.9254 23.9189L38.2776 22.983C37.7518 22.7851 37.1427 22.3152 36.5451 21.6297C35.9541 20.9518 35.4046 20.0975 34.9871 19.1832C34.569 18.2677 34.292 17.3112 34.2279 16.4291C34.1637 15.546 34.3146 14.7712 34.7108 14.1746L33.8778 13.6214ZM39.7377 24.8231C40.6726 25.4146 41.2855 26.0188 41.5176 26.31L42.2996 25.6868C41.9876 25.2953 41.2864 24.6196 40.2724 23.978L39.7377 24.8231ZM50.3303 25.5532C50.7029 26.4509 50.9536 27.612 51.1555 28.9169C51.3577 30.2239 51.5033 31.6169 51.6842 33.0048C51.8631 34.377 52.075 35.7303 52.4083 36.8914C52.7386 38.0419 53.2071 39.0755 53.9467 39.7436L54.6171 39.0015C54.0876 38.5232 53.6837 37.7099 53.3695 36.6155C53.0584 35.5316 52.8539 34.2419 52.6758 32.8756C52.4998 31.525 52.348 30.084 52.1437 28.7639C51.9392 27.4418 51.6743 26.1828 51.2538 25.1698L50.3303 25.5532ZM53.9736 39.7661L66.4302 49.5242L67.0469 48.7369L54.5902 38.9789L53.9736 39.7661ZM66.8005 50.2704C66.8403 55.1328 66.1271 58.5587 64.4108 61.4032C62.6899 64.2554 59.9254 66.583 55.7358 69.1774L56.2623 70.0276C60.4966 67.4055 63.423 64.9761 65.267 61.9198C67.1156 58.8559 67.8411 55.2219 67.8004 50.2622L66.8005 50.2704ZM54.4911 68.9697L46.0061 58.7951L45.2381 59.4355L53.7231 69.6102L54.4911 68.9697ZM37.9254 23.9189C38.1341 23.9974 38.3354 24.0815 38.529 24.1695L38.943 23.2593C38.7298 23.1623 38.5079 23.0697 38.2776 22.983L37.9254 23.9189ZM38.529 24.1695C38.9744 24.3721 39.3786 24.5959 39.7377 24.8231L40.2724 23.978C39.8777 23.7284 39.4333 23.4823 38.943 23.2593L38.529 24.1695ZM46.5899 61.4719L39.2268 23.6189L38.2452 23.8099L45.6083 61.6629L46.5899 61.4719ZM43.3753 15.6677C41.6584 14.9292 40.2531 14.0076 38.9823 13.2881L38.4896 14.1583C39.6924 14.8393 41.1965 15.8191 42.9801 16.5863L43.3753 15.6677ZM38.9823 13.2881C38.0395 12.7542 37.1221 12.3021 36.2611 12.2563C35.8124 12.2324 35.3751 12.3176 34.9615 12.5513C34.5532 12.7821 34.1968 13.1412 33.8778 13.6214L34.7108 14.1746C34.9686 13.7866 35.218 13.555 35.4535 13.4219C35.6837 13.2919 35.9282 13.24 36.208 13.2548C36.8041 13.2866 37.5307 13.6153 38.4896 14.1583L38.9823 13.2881ZM20.4692 19.9482V23.7144H21.4692V19.9482H20.4692ZM14.0969 61.6629L17.3913 44.7266L16.4097 44.5357L13.1153 61.4719L14.0969 61.6629ZM19.744 32.6318L20.0247 31.1888L19.0431 30.9978L18.7624 32.4408L19.744 32.6318ZM21.4692 3.38975C21.4692 2.60897 22.0993 1.97916 22.8728 1.97916V0.979156C21.5436 0.979156 20.4692 2.06015 20.4692 3.38975H21.4692ZM39.236 3.38975C39.236 2.06015 38.1616 0.979156 36.8324 0.979156V1.97916C37.6058 1.97916 38.236 2.60897 38.236 3.38975H39.236ZM17.3427 65.6208C15.264 65.6208 13.6975 63.7161 14.0969 61.6629L13.1153 61.4719C12.5967 64.138 14.6306 66.6208 17.3427 66.6208V65.6208ZM42.3625 66.6208C45.0746 66.6208 47.1085 64.138 46.5899 61.4719L45.6083 61.6629C46.0077 63.7161 44.4412 65.6208 42.3625 65.6208V66.6208ZM42.3625 65.6208H17.3427V66.6208H42.3625V65.6208ZM36.8324 0.979156H22.8728V1.97916H36.8324V0.979156ZM55.7358 69.1774C55.3321 69.4274 54.8001 69.3403 54.4911 68.9697L53.7231 69.6102C54.3462 70.3574 55.4286 70.5439 56.2623 70.0276L55.7358 69.1774ZM18.1663 38.3346C18.0504 38.2883 17.9523 38.2463 17.8629 38.1985L17.3916 39.0805C17.531 39.155 17.6705 39.2134 17.7956 39.2633L18.1663 38.3346ZM66.4302 49.5242C66.6611 49.7051 66.7981 49.9818 66.8005 50.2704L67.8004 50.2622C67.7955 49.6644 67.5137 49.1027 67.0469 48.7369L66.4302 49.5242ZM19.9155 21.7202C20.2286 21.7964 20.4692 22.109 20.4692 22.5214H21.4692C21.4692 21.741 20.9978 20.9544 20.1519 20.7486L19.9155 21.7202ZM21.6247 13.7031C21.5229 13.5221 21.4692 13.3325 21.4692 13.1502H20.4692C20.4692 13.5288 20.58 13.8857 20.7533 14.1936L21.6247 13.7031ZM19.67 12.2294C19.8661 12.1331 20.0386 12.1672 20.1836 12.2847C20.3426 12.4135 20.4692 12.6513 20.4692 12.9395H21.4692C21.4692 12.3692 21.2213 11.8383 20.8131 11.5076C20.3909 11.1656 19.8036 11.0496 19.2291 11.3319L19.67 12.2294ZM21.4692 13.7232V6.28645H20.4692V13.7232H21.4692ZM21.4692 6.28645V3.38975H20.4692V6.28645H21.4692ZM39.236 13.7232V6.28645H38.236V13.7232H39.236ZM39.236 6.28645V3.38975H38.236V6.28645H39.236ZM20.9692 6.78645H38.736V5.78645H20.9692V6.78645Z" fill="#000577"/>
<path d="M11.0937 14.0521C11.0937 15.2775 10.1004 16.2708 8.875 16.2708C7.64962 16.2708 6.65625 15.2775 6.65625 14.0521C6.65625 12.8267 7.64962 11.8333 8.875 11.8333C10.1004 11.8333 11.0937 12.8267 11.0937 14.0521Z" fill="#A8ABFF"/>
<path d="M59.9062 14.0521C59.9062 15.2775 60.8996 16.2708 62.125 16.2708C63.3504 16.2708 64.3437 15.2775 64.3437 14.0521C64.3437 12.8267 63.3504 11.8333 62.125 11.8333C60.8996 11.8333 59.9062 12.8267 59.9062 14.0521Z" fill="#A8ABFF"/>
<path d="M4.4375 27.3646C4.4375 28.59 3.44413 29.5833 2.21875 29.5833C0.993368 29.5833 0 28.59 0 27.3646C0 26.1392 0.993368 25.1458 2.21875 25.1458C3.44413 25.1458 4.4375 26.1392 4.4375 27.3646Z" fill="#A8ABFF"/>
<path d="M66.5625 27.3646C66.5625 28.59 67.5559 29.5833 68.7812 29.5833C70.0066 29.5833 71 28.59 71 27.3646C71 26.1392 70.0066 25.1458 68.7812 25.1458C67.5559 25.1458 66.5625 26.1392 66.5625 27.3646Z" fill="#A8ABFF"/>
<path d="M4.4375 43.6354C4.4375 44.8608 3.44413 45.8542 2.21875 45.8542C0.993368 45.8542 0 44.8608 0 43.6354C0 42.41 0.993368 41.4167 2.21875 41.4167C3.44413 41.4167 4.4375 42.41 4.4375 43.6354Z" fill="#A8ABFF"/>
<path d="M66.5625 43.6354C66.5625 44.8608 67.5559 45.8542 68.7812 45.8542C70.0066 45.8542 71 44.8608 71 43.6354C71 42.41 70.0066 41.4167 68.7812 41.4167C67.5559 41.4167 66.5625 42.41 66.5625 43.6354Z" fill="#A8ABFF"/>
<path d="M11.0937 56.9479C11.0937 58.1733 10.1004 59.1667 8.875 59.1667C7.64962 59.1667 6.65625 58.1733 6.65625 56.9479C6.65625 55.7225 7.64962 54.7292 8.875 54.7292C10.1004 54.7292 11.0937 55.7225 11.0937 56.9479Z" fill="#A8ABFF"/>
</svg>
