<svg width="704" height="61" viewBox="0 0 704 61" fill="none" xmlns="http://www.w3.org/2000/svg">
<path d="M19.9504 30.36C17.8304 30.36 16.0104 29.91 14.4904 29.01C12.9704 28.09 11.8004 26.82 10.9804 25.2C10.1604 23.56 9.75039 21.67 9.75039 19.53C9.75039 17.39 10.1604 15.5 10.9804 13.86C11.8004 12.22 12.9704 10.94 14.4904 10.02C16.0104 9.1 17.8304 8.64 19.9504 8.64C22.4704 8.64 24.5304 9.27 26.1304 10.53C27.7504 11.77 28.7604 13.52 29.1604 15.78H24.9304C24.6704 14.64 24.1104 13.75 23.2504 13.11C22.4104 12.45 21.2904 12.12 19.8904 12.12C17.9504 12.12 16.4304 12.78 15.3304 14.1C14.2304 15.42 13.6804 17.23 13.6804 19.53C13.6804 21.83 14.2304 23.64 15.3304 24.96C16.4304 26.26 17.9504 26.91 19.8904 26.91C21.2904 26.91 22.4104 26.61 23.2504 26.01C24.1104 25.39 24.6704 24.54 24.9304 23.46H29.1604C28.7604 25.62 27.7504 27.31 26.1304 28.53C24.5304 29.75 22.4704 30.36 19.9504 30.36ZM32.5595 30V9H36.3995V17.73H45.8195V9H49.6595V30H45.8195V20.85H36.3995V30H32.5595ZM53.7412 30V9H67.4512V12.09H57.5812V17.85H66.5512V20.85H57.5812V26.91H67.4512V30H53.7412ZM71.0849 30V9H75.6449L82.3349 22.32L88.9349 9H93.4949V30H89.6549V15.51L83.8049 27H80.7749L74.9249 15.51V30H71.0849ZM97.5693 30V9H101.409V30H97.5693ZM114.989 30.36C112.869 30.36 111.049 29.91 109.529 29.01C108.009 28.09 106.839 26.82 106.019 25.2C105.199 23.56 104.789 21.67 104.789 19.53C104.789 17.39 105.199 15.5 106.019 13.86C106.839 12.22 108.009 10.94 109.529 10.02C111.049 9.1 112.869 8.64 114.989 8.64C117.509 8.64 119.569 9.27 121.169 10.53C122.789 11.77 123.799 13.52 124.199 15.78H119.969C119.709 14.64 119.149 13.75 118.289 13.11C117.449 12.45 116.329 12.12 114.929 12.12C112.989 12.12 111.469 12.78 110.369 14.1C109.269 15.42 108.719 17.23 108.719 19.53C108.719 21.83 109.269 23.64 110.369 24.96C111.469 26.26 112.989 26.91 114.929 26.91C116.329 26.91 117.449 26.61 118.289 26.01C119.149 25.39 119.709 24.54 119.969 23.46H124.199C123.799 25.62 122.789 27.31 121.169 28.53C119.569 29.75 117.509 30.36 114.989 30.36ZM125.985 30L133.665 9H137.985L145.665 30H141.585L139.905 25.14H131.715L130.005 30H125.985ZM132.765 22.14H138.855L135.795 13.41L132.765 22.14ZM148.37 30V9H152.21V27H161.51V30H148.37ZM172.042 30V9H175.882V30H172.042ZM179.952 30V9H183.792L193.662 23.79V9H197.502V30H193.662L183.792 15.24V30H179.952ZM207.663 30L199.983 9H204.093L210.033 26.07L216.003 9H220.053L212.373 30H207.663ZM222.55 30V9H236.26V12.09H226.39V17.85H235.36V20.85H226.39V26.91H236.26V30H222.55ZM239.894 30V9H243.734L253.604 23.79V9H257.444V30H253.604L243.734 15.24V30H239.894ZM266.405 30V12.09H260.285V9H276.395V12.09H270.245V30H266.405ZM288.318 30.36C286.218 30.36 284.378 29.9 282.798 28.98C281.238 28.06 280.008 26.79 279.108 25.17C278.228 23.53 277.788 21.64 277.788 19.5C277.788 17.36 278.228 15.48 279.108 13.86C280.008 12.22 281.238 10.94 282.798 10.02C284.378 9.1 286.218 8.64 288.318 8.64C290.398 8.64 292.228 9.1 293.808 10.02C295.388 10.94 296.618 12.22 297.498 13.86C298.378 15.48 298.818 17.36 298.818 19.5C298.818 21.64 298.378 23.53 297.498 25.17C296.618 26.79 295.388 28.06 293.808 28.98C292.228 29.9 290.398 30.36 288.318 30.36ZM288.318 26.91C290.318 26.91 291.908 26.25 293.088 24.93C294.288 23.61 294.888 21.8 294.888 19.5C294.888 17.2 294.288 15.39 293.088 14.07C291.908 12.75 290.318 12.09 288.318 12.09C286.318 12.09 284.718 12.75 283.518 14.07C282.318 15.39 281.718 17.2 281.718 19.5C281.718 21.8 282.318 23.61 283.518 24.93C284.718 26.25 286.318 26.91 288.318 26.91ZM302.208 30V9H309.918C311.598 9 312.978 9.29 314.058 9.87C315.158 10.43 315.978 11.2 316.518 12.18C317.058 13.14 317.328 14.21 317.328 15.39C317.328 16.67 316.988 17.84 316.308 18.9C315.648 19.96 314.608 20.73 313.188 21.21L317.538 30H313.128L309.228 21.72H306.048V30H302.208ZM306.048 18.9H309.678C310.958 18.9 311.898 18.59 312.498 17.97C313.098 17.35 313.398 16.53 313.398 15.51C313.398 14.51 313.098 13.71 312.498 13.11C311.918 12.51 310.968 12.21 309.648 12.21H306.048V18.9ZM325.597 30V22.53L318.547 9H322.897L327.547 18.69L332.167 9H336.457L329.437 22.53V30H325.597ZM346.065 30V9H350.625L357.315 22.32L363.915 9H368.475V30H364.635V15.51L358.785 27H355.755L349.905 15.51V30H346.065ZM371.2 30L378.88 9H383.2L390.88 30H386.8L385.12 25.14H376.93L375.22 30H371.2ZM377.98 22.14H384.07L381.01 13.41L377.98 22.14ZM393.585 30V9H397.425L407.295 23.79V9H411.135V30H407.295L397.425 15.24V30H393.585ZM413.856 30L421.536 9H425.856L433.536 30H429.456L427.776 25.14H419.586L417.876 30H413.856ZM420.636 22.14H426.726L423.666 13.41L420.636 22.14ZM444.22 30.36C442.24 30.36 440.51 29.91 439.03 29.01C437.55 28.11 436.4 26.86 435.58 25.26C434.76 23.64 434.35 21.76 434.35 19.62C434.35 17.46 434.77 15.56 435.61 13.92C436.47 12.26 437.68 10.97 439.24 10.05C440.82 9.11 442.69 8.64 444.85 8.64C447.31 8.64 449.35 9.23 450.97 10.41C452.59 11.59 453.64 13.22 454.12 15.3H449.83C449.51 14.32 448.93 13.56 448.09 13.02C447.25 12.46 446.17 12.18 444.85 12.18C442.75 12.18 441.13 12.85 439.99 14.19C438.85 15.51 438.28 17.33 438.28 19.65C438.28 21.97 438.84 23.77 439.96 25.05C441.1 26.31 442.64 26.94 444.58 26.94C446.48 26.94 447.91 26.43 448.87 25.41C449.85 24.37 450.44 23.01 450.64 21.33H445.33V18.45H454.51V30H450.97L450.67 27.24C449.99 28.24 449.14 29.01 448.12 29.55C447.1 30.09 445.8 30.36 444.22 30.36ZM458.243 30V9H471.953V12.09H462.083V17.85H471.053V20.85H462.083V26.91H471.953V30H458.243ZM475.587 30V9H480.147L486.837 22.32L493.437 9H497.997V30H494.157V15.51L488.307 27H485.277L479.427 15.51V30H475.587ZM502.071 30V9H515.781V12.09H505.911V17.85H514.881V20.85H505.911V26.91H515.781V30H502.071ZM519.415 30V9H523.255L533.125 23.79V9H536.965V30H533.125L523.255 15.24V30H519.415ZM545.926 30V12.09H539.806V9H555.916V12.09H549.766V30H545.926ZM573.079 30.36C571.539 30.36 570.179 30.1 568.999 29.58C567.819 29.04 566.889 28.28 566.209 27.3C565.529 26.3 565.179 25.09 565.159 23.67H569.209C569.249 24.65 569.599 25.48 570.259 26.16C570.939 26.82 571.869 27.15 573.049 27.15C574.069 27.15 574.879 26.91 575.479 26.43C576.079 25.93 576.379 25.27 576.379 24.45C576.379 23.59 576.109 22.92 575.569 22.44C575.049 21.96 574.349 21.57 573.469 21.27C572.589 20.97 571.649 20.65 570.649 20.31C569.029 19.75 567.789 19.03 566.929 18.15C566.089 17.27 565.669 16.1 565.669 14.64C565.649 13.4 565.939 12.34 566.539 11.46C567.159 10.56 567.999 9.87 569.059 9.39C570.119 8.89 571.339 8.64 572.719 8.64C574.119 8.64 575.349 8.89 576.409 9.39C577.489 9.89 578.329 10.59 578.929 11.49C579.549 12.39 579.879 13.46 579.919 14.7H575.809C575.789 13.96 575.499 13.31 574.939 12.75C574.399 12.17 573.639 11.88 572.659 11.88C571.819 11.86 571.109 12.07 570.529 12.51C569.969 12.93 569.689 13.55 569.689 14.37C569.689 15.07 569.909 15.63 570.349 16.05C570.789 16.45 571.389 16.79 572.149 17.07C572.909 17.35 573.779 17.65 574.759 17.97C575.799 18.33 576.749 18.75 577.609 19.23C578.469 19.71 579.159 20.35 579.679 21.15C580.199 21.93 580.459 22.94 580.459 24.18C580.459 25.28 580.179 26.3 579.619 27.24C579.059 28.18 578.229 28.94 577.129 29.52C576.029 30.08 574.679 30.36 573.079 30.36ZM588.331 30V22.53L581.281 9H585.631L590.281 18.69L594.901 9H599.191L592.171 22.53V30H588.331ZM607.62 30.36C606.08 30.36 604.72 30.1 603.54 29.58C602.36 29.04 601.43 28.28 600.75 27.3C600.07 26.3 599.72 25.09 599.7 23.67H603.75C603.79 24.65 604.14 25.48 604.8 26.16C605.48 26.82 606.41 27.15 607.59 27.15C608.61 27.15 609.42 26.91 610.02 26.43C610.62 25.93 610.92 25.27 610.92 24.45C610.92 23.59 610.65 22.92 610.11 22.44C609.59 21.96 608.89 21.57 608.01 21.27C607.13 20.97 606.19 20.65 605.19 20.31C603.57 19.75 602.33 19.03 601.47 18.15C600.63 17.27 600.21 16.1 600.21 14.64C600.19 13.4 600.48 12.34 601.08 11.46C601.7 10.56 602.54 9.87 603.6 9.39C604.66 8.89 605.88 8.64 607.26 8.64C608.66 8.64 609.89 8.89 610.95 9.39C612.03 9.89 612.87 10.59 613.47 11.49C614.09 12.39 614.42 13.46 614.46 14.7H610.35C610.33 13.96 610.04 13.31 609.48 12.75C608.94 12.17 608.18 11.88 607.2 11.88C606.36 11.86 605.65 12.07 605.07 12.51C604.51 12.93 604.23 13.55 604.23 14.37C604.23 15.07 604.45 15.63 604.89 16.05C605.33 16.45 605.93 16.79 606.69 17.07C607.45 17.35 608.32 17.65 609.3 17.97C610.34 18.33 611.29 18.75 612.15 19.23C613.01 19.71 613.7 20.35 614.22 21.15C614.74 21.93 615 22.94 615 24.18C615 25.28 614.72 26.3 614.16 27.24C613.6 28.18 612.77 28.94 611.67 29.52C610.57 30.08 609.22 30.36 607.62 30.36ZM622.977 30V12.09H616.857V9H632.967V12.09H626.817V30H622.977ZM635.811 30V9H649.521V12.09H639.651V17.85H648.621V20.85H639.651V26.91H649.521V30H635.811ZM653.155 30V9H657.715L664.405 22.32L671.005 9H675.565V30H671.725V15.51L665.875 27H662.845L656.995 15.51V30H653.155Z" fill="black"/>
<line y1="38.5" x2="704" y2="38.5" stroke="black"/>
<path d="M9.44518 57V47.2H12.4552C14.1818 47.2 15.4512 47.6387 16.2632 48.516C17.0845 49.3933 17.4952 50.5973 17.4952 52.128C17.4952 53.6307 17.0845 54.8207 16.2632 55.698C15.4512 56.566 14.1818 57 12.4552 57H9.44518ZM10.6212 56.02H12.4272C13.3792 56.02 14.1352 55.866 14.6952 55.558C15.2645 55.2407 15.6705 54.7927 15.9132 54.214C16.1558 53.626 16.2772 52.9307 16.2772 52.128C16.2772 51.3067 16.1558 50.602 15.9132 50.014C15.6705 49.426 15.2645 48.9733 14.6952 48.656C14.1352 48.3387 13.3792 48.18 12.4272 48.18H10.6212V56.02ZM22.2732 57V47.2H28.3352V48.166H23.4492V51.582H27.9152V52.534H23.4492V56.034H28.3352V57H22.2732ZM33.2556 57V47.2H36.4756C37.2409 47.2 37.8709 47.326 38.3656 47.578C38.8602 47.83 39.2242 48.1707 39.4576 48.6C39.7002 49.0293 39.8216 49.5147 39.8216 50.056C39.8216 50.588 39.7049 51.0687 39.4716 51.498C39.2382 51.9273 38.8742 52.2727 38.3796 52.534C37.8849 52.786 37.2502 52.912 36.4756 52.912H34.4316V57H33.2556ZM34.4316 51.918H36.4476C37.2316 51.918 37.7869 51.7547 38.1136 51.428C38.4496 51.092 38.6176 50.6347 38.6176 50.056C38.6176 49.468 38.4496 49.0107 38.1136 48.684C37.7869 48.348 37.2316 48.18 36.4476 48.18H34.4316V51.918ZM42.5965 57L46.2085 47.2H47.4545L51.0525 57H49.8065L48.9105 54.48H44.7385L43.8285 57H42.5965ZM45.0885 53.528H48.5605L46.8245 48.684L45.0885 53.528ZM55.5894 57V47.2H58.7534C59.5187 47.2 60.1441 47.326 60.6294 47.578C61.1147 47.83 61.4741 48.1753 61.7074 48.614C61.9407 49.0527 62.0574 49.538 62.0574 50.07C62.0574 50.686 61.8894 51.2413 61.5534 51.736C61.2267 52.2307 60.7134 52.5807 60.0134 52.786L62.1554 57H60.7694L58.7814 52.954H58.6974H56.7654V57H55.5894ZM56.7654 52.03H58.6694C59.4254 52.03 59.9761 51.848 60.3214 51.484C60.6667 51.12 60.8394 50.6533 60.8394 50.084C60.8394 49.5053 60.6667 49.048 60.3214 48.712C59.9854 48.3667 59.4301 48.194 58.6554 48.194H56.7654V52.03ZM69.2642 57V48.166H66.3382V47.2H73.3662V48.166H70.4402V57H69.2642ZM77.8822 57V47.2H79.2542L82.7822 54.032L86.2822 47.2H87.6682V57H86.4922V49.3L83.2162 55.6H82.3342L79.0582 49.314V57H77.8822ZM92.8157 57V47.2H98.8777V48.166H93.9917V51.582H98.4577V52.534H93.9917V56.034H98.8777V57H92.8157ZM103.798 57V47.2H104.974L110.196 55.054V47.2H111.372V57H110.196L104.974 49.146V57H103.798ZM118.826 57V48.166H115.9V47.2H122.928V48.166H120.002V57H118.826ZM138.681 57.168C137.72 57.168 136.875 56.958 136.147 56.538C135.429 56.1087 134.864 55.5113 134.453 54.746C134.052 53.9807 133.851 53.0987 133.851 52.1C133.851 51.1013 134.052 50.224 134.453 49.468C134.864 48.7027 135.429 48.1053 136.147 47.676C136.875 47.2467 137.72 47.032 138.681 47.032C139.652 47.032 140.497 47.2467 141.215 47.676C141.943 48.1053 142.508 48.7027 142.909 49.468C143.311 50.224 143.511 51.1013 143.511 52.1C143.511 53.0987 143.311 53.9807 142.909 54.746C142.508 55.5113 141.943 56.1087 141.215 56.538C140.497 56.958 139.652 57.168 138.681 57.168ZM138.681 56.132C139.4 56.132 140.03 55.9733 140.571 55.656C141.122 55.3293 141.547 54.8673 141.845 54.27C142.153 53.6633 142.307 52.94 142.307 52.1C142.307 51.26 142.153 50.5413 141.845 49.944C141.547 49.3467 141.122 48.8893 140.571 48.572C140.03 48.2453 139.4 48.082 138.681 48.082C137.963 48.082 137.328 48.2453 136.777 48.572C136.236 48.8893 135.811 49.3467 135.503 49.944C135.205 50.5413 135.055 51.26 135.055 52.1C135.055 52.94 135.205 53.6633 135.503 54.27C135.811 54.8673 136.236 55.3293 136.777 55.656C137.328 55.9733 137.963 56.132 138.681 56.132ZM148.288 57V47.2H154.252V48.166H149.464V51.61H153.538V52.562H149.464V57H148.288ZM169.93 57.168C168.968 57.168 168.138 56.958 167.438 56.538C166.747 56.1087 166.21 55.516 165.828 54.76C165.445 53.9947 165.254 53.108 165.254 52.1C165.254 51.1013 165.445 50.224 165.828 49.468C166.21 48.7027 166.747 48.1053 167.438 47.676C168.138 47.2467 168.968 47.032 169.93 47.032C171.05 47.032 171.96 47.3027 172.66 47.844C173.369 48.376 173.822 49.1227 174.018 50.084H172.716C172.566 49.4773 172.258 48.992 171.792 48.628C171.334 48.2547 170.714 48.068 169.93 48.068C169.23 48.068 168.618 48.2313 168.096 48.558C167.573 48.8753 167.167 49.3373 166.878 49.944C166.598 50.5413 166.458 51.26 166.458 52.1C166.458 52.94 166.598 53.6633 166.878 54.27C167.167 54.8673 167.573 55.3293 168.096 55.656C168.618 55.9733 169.23 56.132 169.93 56.132C170.714 56.132 171.334 55.9547 171.792 55.6C172.258 55.236 172.566 54.7553 172.716 54.158H174.018C173.822 55.1007 173.369 55.838 172.66 56.37C171.96 56.902 171.05 57.168 169.93 57.168ZM178.788 57V47.2H179.964V51.526H185.046V47.2H186.222V57H185.046V52.492H179.964V57H178.788ZM191.37 57V47.2H197.432V48.166H192.546V51.582H197.012V52.534H192.546V56.034H197.432V57H191.37ZM202.352 57V47.2H203.724L207.252 54.032L210.752 47.2H212.138V57H210.962V49.3L207.686 55.6H206.804L203.528 49.314V57H202.352ZM217.286 57V47.2H218.462V57H217.286ZM226.741 57.168C226.023 57.168 225.397 57.0373 224.865 56.776C224.333 56.5147 223.923 56.1507 223.633 55.684C223.344 55.2173 223.199 54.676 223.199 54.06H224.431C224.431 54.4427 224.52 54.7973 224.697 55.124C224.875 55.4413 225.131 55.698 225.467 55.894C225.813 56.0807 226.237 56.174 226.741 56.174C227.404 56.174 227.917 56.0153 228.281 55.698C228.645 55.3807 228.827 54.984 228.827 54.508C228.827 54.116 228.743 53.8033 228.575 53.57C228.407 53.3273 228.179 53.1313 227.889 52.982C227.609 52.8327 227.283 52.702 226.909 52.59C226.545 52.478 226.163 52.352 225.761 52.212C225.005 51.9507 224.445 51.6287 224.081 51.246C223.717 50.854 223.535 50.3453 223.535 49.72C223.526 49.1973 223.647 48.7353 223.899 48.334C224.151 47.9233 224.506 47.606 224.963 47.382C225.43 47.1487 225.981 47.032 226.615 47.032C227.241 47.032 227.782 47.1487 228.239 47.382C228.706 47.6153 229.065 47.9373 229.317 48.348C229.579 48.7587 229.714 49.2253 229.723 49.748H228.491C228.491 49.4773 228.421 49.2113 228.281 48.95C228.141 48.6793 227.927 48.46 227.637 48.292C227.357 48.124 227.003 48.04 226.573 48.04C226.041 48.0307 225.603 48.166 225.257 48.446C224.921 48.726 224.753 49.1133 224.753 49.608C224.753 50.028 224.87 50.35 225.103 50.574C225.346 50.798 225.682 50.9847 226.111 51.134C226.541 51.274 227.035 51.4373 227.595 51.624C228.062 51.792 228.482 51.988 228.855 52.212C229.229 52.436 229.518 52.7253 229.723 53.08C229.938 53.4347 230.045 53.8873 230.045 54.438C230.045 54.9047 229.924 55.348 229.681 55.768C229.439 56.1787 229.07 56.5147 228.575 56.776C228.09 57.0373 227.479 57.168 226.741 57.168ZM236.857 57V48.166H233.931V47.2H240.959V48.166H238.033V57H236.857ZM245.475 57V47.2H248.639C249.404 47.2 250.029 47.326 250.515 47.578C251 47.83 251.359 48.1753 251.593 48.614C251.826 49.0527 251.943 49.538 251.943 50.07C251.943 50.686 251.775 51.2413 251.439 51.736C251.112 52.2307 250.599 52.5807 249.899 52.786L252.041 57H250.655L248.667 52.954H248.583H246.651V57H245.475ZM246.651 52.03H248.555C249.311 52.03 249.861 51.848 250.207 51.484C250.552 51.12 250.725 50.6533 250.725 50.084C250.725 49.5053 250.552 49.048 250.207 48.712C249.871 48.3667 249.315 48.194 248.541 48.194H246.651V52.03ZM258.879 57V53.276L255.687 47.2H257.017L259.467 52.156L261.917 47.2H263.233L260.055 53.276V57H258.879ZM281.201 58.4V46.92H282.377V58.4H281.201ZM297.647 57.168C296.928 57.168 296.28 57.028 295.701 56.748C295.122 56.4587 294.66 56.0247 294.315 55.446C293.979 54.8673 293.811 54.1347 293.811 53.248V47.2H295.603V53.262C295.603 54.0273 295.785 54.5967 296.149 54.97C296.522 55.3433 297.036 55.53 297.689 55.53C298.333 55.53 298.842 55.3433 299.215 54.97C299.588 54.5967 299.775 54.0273 299.775 53.262V47.2H301.567V53.248C301.567 54.1347 301.39 54.8673 301.035 55.446C300.68 56.0247 300.204 56.4587 299.607 56.748C299.019 57.028 298.366 57.168 297.647 57.168ZM306.476 57V47.2H308.268L312.874 54.102V47.2H314.666V57H312.874L308.268 50.112V57H306.476ZM319.646 57V47.2H321.438V57H319.646ZM329.259 57L325.675 47.2H327.593L330.365 55.166L333.151 47.2H335.041L331.457 57H329.259ZM339.287 57V47.2H345.685V48.642H341.079V51.33H345.265V52.73H341.079V55.558H345.685V57H339.287ZM350.46 57V47.2H354.058C354.842 47.2 355.486 47.3353 355.99 47.606C356.504 47.8673 356.886 48.2267 357.138 48.684C357.39 49.132 357.516 49.6313 357.516 50.182C357.516 50.7793 357.358 51.3253 357.04 51.82C356.732 52.3147 356.247 52.674 355.584 52.898L357.614 57H355.556L353.736 53.136H352.252V57H350.46ZM352.252 51.82H353.946C354.544 51.82 354.982 51.6753 355.262 51.386C355.542 51.0967 355.682 50.714 355.682 50.238C355.682 49.7713 355.542 49.398 355.262 49.118C354.992 48.838 354.548 48.698 353.932 48.698H352.252V51.82ZM365.609 57.168C364.89 57.168 364.256 57.0467 363.705 56.804C363.154 56.552 362.72 56.1973 362.403 55.74C362.086 55.2733 361.922 54.7087 361.913 54.046H363.803C363.822 54.5033 363.985 54.8907 364.293 55.208C364.61 55.516 365.044 55.67 365.595 55.67C366.071 55.67 366.449 55.558 366.729 55.334C367.009 55.1007 367.149 54.7927 367.149 54.41C367.149 54.0087 367.023 53.696 366.771 53.472C366.528 53.248 366.202 53.066 365.791 52.926C365.38 52.786 364.942 52.6367 364.475 52.478C363.719 52.2167 363.14 51.8807 362.739 51.47C362.347 51.0593 362.151 50.5133 362.151 49.832C362.142 49.2533 362.277 48.7587 362.557 48.348C362.846 47.928 363.238 47.606 363.733 47.382C364.228 47.1487 364.797 47.032 365.441 47.032C366.094 47.032 366.668 47.1487 367.163 47.382C367.667 47.6153 368.059 47.942 368.339 48.362C368.628 48.782 368.782 49.2813 368.801 49.86H366.883C366.874 49.5147 366.738 49.2113 366.477 48.95C366.225 48.6793 365.87 48.544 365.413 48.544C365.021 48.5347 364.69 48.6327 364.419 48.838C364.158 49.034 364.027 49.3233 364.027 49.706C364.027 50.0327 364.13 50.294 364.335 50.49C364.54 50.6767 364.82 50.8353 365.175 50.966C365.53 51.0967 365.936 51.2367 366.393 51.386C366.878 51.554 367.322 51.75 367.723 51.974C368.124 52.198 368.446 52.4967 368.689 52.87C368.932 53.234 369.053 53.7053 369.053 54.284C369.053 54.7973 368.922 55.2733 368.661 55.712C368.4 56.1507 368.012 56.5053 367.499 56.776C366.986 57.0373 366.356 57.168 365.609 57.168ZM373.696 57V47.2H375.488V57H373.696ZM382.75 57V48.642H379.894V47.2H387.412V48.642H384.542V57H382.75ZM394.353 57V53.514L391.063 47.2H393.093L395.263 51.722L397.419 47.2H399.421L396.145 53.514V57H394.353ZM414.657 57.168C413.677 57.168 412.819 56.9533 412.081 56.524C411.353 56.0947 410.779 55.502 410.359 54.746C409.949 53.9807 409.743 53.0987 409.743 52.1C409.743 51.1013 409.949 50.224 410.359 49.468C410.779 48.7027 411.353 48.1053 412.081 47.676C412.819 47.2467 413.677 47.032 414.657 47.032C415.628 47.032 416.482 47.2467 417.219 47.676C417.957 48.1053 418.531 48.7027 418.941 49.468C419.352 50.224 419.557 51.1013 419.557 52.1C419.557 53.0987 419.352 53.9807 418.941 54.746C418.531 55.502 417.957 56.0947 417.219 56.524C416.482 56.9533 415.628 57.168 414.657 57.168ZM414.657 55.558C415.591 55.558 416.333 55.25 416.883 54.634C417.443 54.018 417.723 53.1733 417.723 52.1C417.723 51.0267 417.443 50.182 416.883 49.566C416.333 48.95 415.591 48.642 414.657 48.642C413.724 48.642 412.977 48.95 412.417 49.566C411.857 50.182 411.577 51.0267 411.577 52.1C411.577 53.1733 411.857 54.018 412.417 54.634C412.977 55.25 413.724 55.558 414.657 55.558ZM424.219 57V47.2H430.547V48.642H426.011V51.386H429.679V52.8H426.011V57H424.219ZM441.426 57V47.2H445.052C445.836 47.2 446.485 47.3307 446.998 47.592C447.512 47.8533 447.894 48.2127 448.146 48.67C448.398 49.1273 448.524 49.6407 448.524 50.21C448.524 50.7513 448.403 51.2507 448.16 51.708C447.918 52.156 447.54 52.52 447.026 52.8C446.513 53.0707 445.855 53.206 445.052 53.206H443.218V57H441.426ZM443.218 51.75H444.94C445.566 51.75 446.014 51.6147 446.284 51.344C446.564 51.064 446.704 50.686 446.704 50.21C446.704 49.7247 446.564 49.3467 446.284 49.076C446.014 48.796 445.566 48.656 444.94 48.656H443.218V51.75ZM453.01 57V47.2H459.408V48.642H454.802V51.33H458.988V52.73H454.802V55.558H459.408V57H453.01ZM464.184 57V47.2H467.782C468.566 47.2 469.21 47.3353 469.714 47.606C470.227 47.8673 470.61 48.2267 470.862 48.684C471.114 49.132 471.24 49.6313 471.24 50.182C471.24 50.7793 471.081 51.3253 470.764 51.82C470.456 52.3147 469.971 52.674 469.308 52.898L471.338 57H469.28L467.46 53.136H465.976V57H464.184ZM465.976 51.82H467.67C468.267 51.82 468.706 51.6753 468.986 51.386C469.266 51.0967 469.406 50.714 469.406 50.238C469.406 49.7713 469.266 49.398 468.986 49.118C468.715 48.838 468.272 48.698 467.656 48.698H465.976V51.82ZM475.357 57L478.941 47.2H480.957L484.541 57H482.637L481.853 54.732H478.031L477.233 57H475.357ZM478.521 53.332H481.363L479.935 49.258L478.521 53.332ZM488.883 57V47.2H492.229C493.377 47.2 494.32 47.4053 495.057 47.816C495.804 48.2173 496.354 48.7867 496.709 49.524C497.073 50.252 497.255 51.1107 497.255 52.1C497.255 53.0893 497.073 53.9527 496.709 54.69C496.354 55.418 495.804 55.9873 495.057 56.398C494.32 56.7993 493.377 57 492.229 57H488.883ZM490.675 55.46H492.145C492.966 55.46 493.615 55.3293 494.091 55.068C494.567 54.7973 494.908 54.4147 495.113 53.92C495.318 53.416 495.421 52.8093 495.421 52.1C495.421 51.4 495.318 50.798 495.113 50.294C494.908 49.79 494.567 49.4027 494.091 49.132C493.615 48.8613 492.966 48.726 492.145 48.726H490.675V55.46ZM501.916 57V47.2H508.314V48.642H503.708V51.33H507.894V52.73H503.708V55.558H508.314V57H501.916ZM513.09 57V47.2H514.882L519.488 54.102V47.2H521.28V57H519.488L514.882 50.112V57H513.09ZM526.26 57V47.2H528.052V57H526.26ZM535.565 57V53.514L532.275 47.2H534.305L536.475 51.722L538.631 47.2H540.633L537.357 53.514V57H535.565ZM543.096 57L546.68 47.2H548.696L552.28 57H550.376L549.592 54.732H545.77L544.972 57H543.096ZM546.26 53.332H549.102L547.674 49.258L546.26 53.332Z" fill="black"/>
</svg>
